<svg xmlns="http://www.w3.org/2000/svg" viewBox="0 0 1920 1080"><defs><style>.cls-1,.cls-3{fill:#eee8e4;}.cls-2{fill:none;stroke:#625252;}.cls-2,.cls-3,.cls-4{stroke-miterlimit:10;}.cls-3{stroke:#eee8e4;}.cls-4{fill:#201e20;stroke:#1f1d1f;}</style></defs><g id="Layer_1" data-name="Layer 1"><rect class="cls-1" width="1920" height="1080"/></g><g id="Layer_2" data-name="Layer 2"><polyline class="cls-2" points="1052.6 255.84 1322 255.84 1322 246.54 1311.72 246.54 1311.72 232.83 1297.51 232.83 1297.51 219.11 1275.97 219.11 1275.97 203.44 1237.28 203.44 1237.28 193.16 1220.63 193.16 1220.63 173.57 1208.38 173.57 1208.38 165.24 1196.14 165.24 1196.14 158.88 1169.2 158.88 1169.2 167.69 1131.01 167.69 1131.01 173.57 1117.78 173.57 1117.78 180.92 1108.97 180.92 1108.97 203.44 1084.48 203.44 1084.48 210.3 1077.63 210.3 1077.63 218.63 1024.25 218.63 1024.25 228.42 1018.86 228.42 1018.86 247.52 1005.64 247.52"/><rect class="cls-3" x="1292.83" y="564.37" width="7.86" height="7.86"/><polygon class="cls-4" points="1108.24 490.05 1108.24 368.3 1120.73 368.3 1120.73 389.11 1134.25 389.11 1134.25 402.2 1144.66 402.2 1144.66 417.21 1157.15 417.21 1157.15 429.18 1170.67 429.18 1170.67 441.14 1184.2 441.14 1184.2 459.87 1196.69 459.87 1196.69 475.48 1208.13 475.48 1208.13 490.05 1256 490.05 1256 503.57 1215.42 503.57 1215.42 520.22 1245.59 520.22 1245.59 532.71 1212.3 532.71 1212.3 547.28 1108.24 547.28 1108.24 532.71 1085.35 532.71 1085.35 516.06 1059.33 516.06 1059.33 500.45 976.09 500.45 976.09 487.97 990.66 487.97 990.66 477.56 1005.22 477.56 1005.22 457.79 1018.75 457.79 1018.75 446.34 1024.99 446.34 1024.99 432.82 1047.89 432.82 1047.89 445.3 1056.21 445.3 1056.21 457.79 1069.74 457.79 1069.74 477.56 1087.43 477.56 1087.43 489.01 1087.43 490.13 1108.24 490.05"/><rect class="cls-3" x="1018.75" y="470.8" width="12.49" height="13.53"/><polyline class="cls-2" points="271.44 197.2 452.24 197.2 452.24 190.96 445.34 190.96 445.34 181.76 435.81 181.76 435.81 172.56 421.35 172.56 421.35 162.04 395.38 162.04 395.38 155.13 384.21 155.13 384.21 141.99 375.99 141.99 375.99 136.4 367.77 136.4 367.77 132.13 349.7 132.13 349.7 138.04 324.06 138.04 324.06 141.99 315.19 141.99 315.19 146.92 309.27 146.92 309.27 162.04 292.84 162.04 292.84 166.64 288.24 166.64 288.24 172.23 252.41 172.23 252.41 178.8 248.8 178.8 248.8 191.62 239.93 191.62"/><polyline class="cls-2" points="421.87 652.84 684 652.84 684 643.79 673.99 643.79 673.99 630.45 660.17 630.45 660.17 617.1 639.21 617.1 639.21 601.85 601.56 601.85 601.56 591.85 585.36 591.85 585.36 572.79 573.45 572.79 573.45 564.69 561.53 564.69 561.53 558.49 535.33 558.49 535.33 567.07 498.16 567.07 498.16 572.79 485.29 572.79 485.29 579.93 476.71 579.93 476.71 601.85 452.89 601.85 452.89 608.53 446.21 608.53 446.21 616.63 394.27 616.63 394.27 626.16 389.03 626.16 389.03 644.74 376.17 644.74"/><polyline class="cls-2" points="1555.33 407.1 1780 407.1 1780 399.34 1771.42 399.34 1771.42 387.9 1759.58 387.9 1759.58 376.47 1741.61 376.47 1741.61 363.4 1709.35 363.4 1709.35 354.82 1695.46 354.82 1695.46 338.49 1685.25 338.49 1685.25 331.54 1675.04 331.54 1675.04 326.23 1652.58 326.23 1652.58 333.58 1620.72 333.58 1620.72 338.49 1609.69 338.49 1609.69 344.61 1602.34 344.61 1602.34 363.4 1581.92 363.4 1581.92 369.12 1576.2 369.12 1576.2 376.06 1531.69 376.06 1531.69 384.23 1527.19 384.23 1527.19 400.16 1516.17 400.16"/><polyline class="cls-2" points="920.45 1011.2 1101.24 1011.2 1101.24 1004.96 1094.34 1004.96 1094.34 995.76 1084.81 995.76 1084.81 986.55 1070.35 986.55 1070.35 976.04 1044.38 976.04 1044.38 969.13 1033.21 969.13 1033.21 955.99 1024.99 955.99 1024.99 950.4 1016.77 950.4 1016.77 946.13 998.7 946.13 998.7 952.04 973.06 952.04 973.06 955.99 964.19 955.99 964.19 960.92 958.27 960.92 958.27 976.04 941.84 976.04 941.84 980.64 937.24 980.64 937.24 986.23 901.41 986.23 901.41 992.8 897.8 992.8 897.8 1005.62 888.93 1005.62"/><polyline class="cls-2" points="1257.27 758.23 1516 758.23 1516 749.29 1506.12 749.29 1506.12 736.12 1492.48 736.12 1492.48 722.96 1471.79 722.96 1471.79 707.9 1434.63 707.9 1434.63 698.03 1418.64 698.03 1418.64 679.21 1406.88 679.21 1406.88 671.22 1395.13 671.22 1395.13 665.1 1369.26 665.1 1369.26 673.57 1332.57 673.57 1332.57 679.21 1319.87 679.21 1319.87 686.27 1311.41 686.27 1311.41 707.9 1287.89 707.9 1287.89 714.49 1281.31 714.49 1281.31 722.48 1230.04 722.48 1230.04 731.89 1224.87 731.89 1224.87 750.23 1212.17 750.23"/><polyline class="cls-2" points="207.44 924.2 388.24 924.2 388.24 917.96 381.34 917.96 381.34 908.76 371.81 908.76 371.81 899.55 357.35 899.55 357.35 889.04 331.38 889.04 331.38 882.13 320.21 882.13 320.21 868.99 311.99 868.99 311.99 863.4 303.77 863.4 303.77 859.13 285.7 859.13 285.7 865.04 260.06 865.04 260.06 868.99 251.19 868.99 251.19 873.92 245.27 873.92 245.27 889.04 228.84 889.04 228.84 893.64 224.24 893.64 224.24 899.23 188.41 899.23 188.41 905.8 184.8 905.8 184.8 918.62 175.93 918.62"/><polyline class="cls-2" points="-25.89 426.87 154.91 426.87 154.91 420.63 148.01 420.63 148.01 411.42 138.47 411.42 138.47 402.22 124.01 402.22 124.01 391.7 98.05 391.7 98.05 384.8 86.88 384.8 86.88 371.66 78.66 371.66 78.66 366.07 70.44 366.07 70.44 361.8 52.37 361.8 52.37 367.71 26.73 367.71 26.73 371.66 17.86 371.66 17.86 376.59 11.94 376.59 11.94 391.7 -4.49 391.7 -4.49 396.31 -9.09 396.31 -9.09 401.89 -44.92 401.89 -44.92 408.47 -48.53 408.47 -48.53 421.28 -57.41 421.28"/><polyline class="cls-2" points="1792.11 981.87 1972.91 981.87 1972.91 975.63 1966.01 975.63 1966.01 966.42 1956.47 966.42 1956.47 957.22 1942.01 957.22 1942.01 946.7 1916.05 946.7 1916.05 939.8 1904.88 939.8 1904.88 926.66 1896.66 926.66 1896.66 921.07 1888.44 921.07 1888.44 916.8 1870.37 916.8 1870.37 922.71 1844.73 922.71 1844.73 926.66 1835.86 926.66 1835.86 931.59 1829.94 931.59 1829.94 946.7 1813.51 946.7 1813.51 951.3 1808.91 951.3 1808.91 956.89 1773.08 956.89 1773.08 963.47 1769.47 963.47 1769.47 976.28 1760.59 976.28"/><polygon class="cls-4" points="198.63 717.37 198.63 654.33 205.09 654.33 205.09 665.11 212.09 665.11 212.09 671.88 217.48 671.88 217.48 679.65 223.95 679.65 223.95 685.85 230.95 685.85 230.95 692.05 237.96 692.05 237.96 701.74 244.42 701.74 244.42 709.83 250.35 709.83 250.35 717.37 275.13 717.37 275.13 724.37 254.12 724.37 254.12 732.99 269.74 732.99 269.74 739.46 252.5 739.46 252.5 747 198.63 747 198.63 739.46 186.77 739.46 186.77 730.84 173.3 730.84 173.3 722.76 130.2 722.76 130.2 716.29 137.75 716.29 137.75 710.9 145.29 710.9 145.29 700.67 152.29 700.67 152.29 694.74 155.53 694.74 155.53 687.74 167.38 687.74 167.38 694.2 171.69 694.2 171.69 700.67 178.69 700.67 178.69 710.9 187.85 710.9 187.85 716.83 187.85 717.41 198.63 717.37"/><rect class="cls-3" x="152.29" y="707.4" width="6.47" height="7"/><polygon class="cls-4" points="658.06 246.86 658.06 159.33 667.03 159.33 667.03 174.29 676.76 174.29 676.76 183.7 684.24 183.7 684.24 194.49 693.22 194.49 693.22 203.09 702.94 203.09 702.94 211.7 712.66 211.7 712.66 225.16 721.64 225.16 721.64 236.38 729.87 236.38 729.87 246.86 764.28 246.86 764.28 256.58 735.11 256.58 735.11 268.55 756.8 268.55 756.8 277.53 732.86 277.53 732.86 288 658.06 288 658.06 277.53 641.6 277.53 641.6 265.56 622.9 265.56 622.9 254.34 563.05 254.34 563.05 245.36 573.52 245.36 573.52 237.88 584 237.88 584 223.67 593.72 223.67 593.72 215.44 598.21 215.44 598.21 205.71 614.67 205.71 614.67 214.69 620.65 214.69 620.65 223.67 630.38 223.67 630.38 237.88 643.1 237.88 643.1 246.11 643.1 246.92 658.06 246.86"/><rect class="cls-3" x="593.72" y="233.02" width="8.98" height="9.72"/><polygon class="cls-4" points="1764.48 287.78 1764.48 217.32 1771.71 217.32 1771.71 229.36 1779.54 229.36 1779.54 236.94 1785.56 236.94 1785.56 245.62 1792.79 245.62 1792.79 252.55 1800.62 252.55 1800.62 259.48 1808.45 259.48 1808.45 270.32 1815.67 270.32 1815.67 279.35 1822.3 279.35 1822.3 287.78 1850 287.78 1850 295.61 1826.51 295.61 1826.51 305.24 1843.98 305.24 1843.98 312.47 1824.71 312.47 1824.71 320.9 1764.48 320.9 1764.48 312.47 1751.23 312.47 1751.23 302.84 1736.18 302.84 1736.18 293.8 1688 293.8 1688 286.58 1696.43 286.58 1696.43 280.55 1704.86 280.55 1704.86 269.11 1712.69 269.11 1712.69 262.49 1716.31 262.49 1716.31 254.66 1729.55 254.66 1729.55 261.88 1734.37 261.88 1734.37 269.11 1742.2 269.11 1742.2 280.55 1752.44 280.55 1752.44 287.18 1752.44 287.83 1764.48 287.78"/><rect class="cls-3" x="1712.69" y="276.64" width="7.23" height="7.83"/><polygon class="cls-4" points="1345.37 921.8 1345.37 849.6 1352.78 849.6 1352.78 861.94 1360.8 861.94 1360.8 869.7 1366.97 869.7 1366.97 878.6 1374.38 878.6 1374.38 885.7 1382.4 885.7 1382.4 892.79 1390.42 892.79 1390.42 903.9 1397.83 903.9 1397.83 913.16 1404.61 913.16 1404.61 921.8 1433 921.8 1433 929.82 1408.93 929.82 1408.93 939.69 1426.83 939.69 1426.83 947.1 1407.08 947.1 1407.08 955.74 1345.37 955.74 1345.37 947.1 1331.8 947.1 1331.8 937.22 1316.37 937.22 1316.37 927.97 1267 927.97 1267 920.56 1275.64 920.56 1275.64 914.39 1284.28 914.39 1284.28 902.67 1292.3 902.67 1292.3 895.88 1296 895.88 1296 887.86 1309.58 887.86 1309.58 895.26 1314.52 895.26 1314.52 902.67 1322.54 902.67 1322.54 914.39 1333.03 914.39 1333.03 921.18 1333.03 921.85 1345.37 921.8"/><rect class="cls-3" x="1292.3" y="910.38" width="7.41" height="8.02"/></g></svg>