<?xml version="1.0" encoding="utf-8"?>
<!-- Generator: Adobe Illustrator 24.0.0, SVG Export Plug-In . SVG Version: 6.00 Build 0)  -->
<svg version="1.1" id="Layer_1" xmlns="http://www.w3.org/2000/svg" xmlns:xlink="http://www.w3.org/1999/xlink" x="0px" y="0px"
	 viewBox="0 0 642 609" style="enable-background:new 0 0 642 609;" xml:space="preserve">
<style type="text/css">
	.st0{fill:#141011;}
</style>
<title>Black cactus</title>
<path class="st0" d="M215.7,550.5l2.1-130.1l2-129.5l1.1-73c-0.1-6.1-2.5-11.9-6.7-16.2c-4-4-10.5-6.9-16.2-6.7
	c-5.9,0.3-12.1,2.2-16.2,6.7c-4.2,4.4-6.6,10.1-6.7,16.2l-2,130.1l-2,129.5l-1.1,73c0.1,6.1,2.5,11.8,6.7,16.2c4,4,10.5,7,16.2,6.7
	c5.9-0.3,12.1-2.2,16.2-6.7C213.2,562.3,215.6,556.5,215.7,550.5L215.7,550.5z"/>
<path class="st0" d="M169,424.3l-0.3,0.1l5.5-2.3c-3.3,1.4-6.8,2.3-10.3,2.8l6.1-0.8c-3.9,0.5-7.8,0.5-11.6,0l6.1,0.8
	c-4.1-0.6-8.1-1.7-11.9-3.3l5.5,2.3c-3.7-1.6-7.2-3.6-10.4-6l4.6,3.6c-2.8-2.2-5.3-4.7-7.5-7.5l3.6,4.6c-2.1-2.8-3.9-5.9-5.3-9.2
	l2.3,5.5c-2-5.1-3.3-10.4-4-15.8l0.8,6.1c-1.5-11.3-1.3-22.8-1.6-34.1c-0.3-12.1-0.6-24.3-0.9-36.4l-0.6-21
	c-0.1-6-2.5-11.8-6.7-16.2c-2-2.2-4.5-3.8-7.3-4.7c-2.7-1.4-5.7-2.1-8.8-2l-6.1,0.8c-3.8,1.1-7.3,3.1-10.1,5.9
	c-4,4.4-6.9,10-6.7,16.2l1.1,42.6l0.5,21.2c0.2,6.6,0.2,13.2,0.7,19.8c0.3,5,1,9.9,1.7,14.8c0.4,3,1,6,1.8,8.9
	c1.4,4.8,3.2,9.5,5.5,13.9c1.1,2.2,2.3,4.3,3.8,6.3c2.4,3.4,5.1,6.6,8,9.6c3.1,2.9,6.4,5.5,9.9,7.9c2,1.4,4,2.6,6.2,3.7
	c3.8,1.9,7.7,3.5,11.7,4.8c2.6,0.8,5.2,1.4,7.8,1.8c4.5,0.8,9.1,1.2,13.8,1.3c1.3,0,2.7-0.1,4-0.3c3.2-0.4,6.5-0.7,9.7-1.4
	c4.5-1,8.6-2.9,12.8-4.7c5-3.2,8.7-8,10.5-13.7c0.9-2.9,1-6.1,0.3-9.1c-0.1-3-1.1-6-2.7-8.5c-3.1-4.9-7.8-9.2-13.7-10.5l-6.1-0.8
	C176.5,421.1,172.5,422.2,169,424.3z"/>
<path class="st0" d="M218.5,396.7c4.6,0.6,9.3,1,13.9,1c2.3,0,4.5-0.2,6.8-0.4c4.1-0.3,8.2-1,12.2-2c7.6-2.1,14.6-6,20.3-11.4
	c2.9-2.8,5.4-6,7.3-9.5c2.4-4.2,4-8.7,4.9-13.5c1.2-8,1.9-16.1,2-24.2c0.3-6.7,0.5-13.4,0.6-20.1c0.3-13.3,0.4-26.7,0.3-40.1
	c-0.1-15.1-0.5-30.2-1.1-45.3c0.1-3.1-0.6-6.1-2-8.8c-2.1-5.6-6.5-10-12.1-12.1c-2.7-1.4-5.7-2.1-8.8-2l-6.1,0.8
	c-3.8,1.1-7.3,3.1-10.1,5.9c-4,4.4-7,10.1-6.7,16.2c1.3,32,1.5,64,0.5,96c-0.1,4.5-0.3,8.9-0.5,13.4c-0.2,4.3-0.3,8.6-0.8,12.8
	l0.8-6.1c-0.3,2.6-1,5.1-1.9,7.5l2.3-5.5c-0.7,1.5-1.5,3-2.5,4.3l3.6-4.6c-1.1,1.4-2.3,2.6-3.7,3.7l4.6-3.6c-1.5,1.2-3.2,2.1-5,2.9
	l5.5-2.3c-3,1.2-6.1,2-9.4,2.4l6.1-0.8c-7,0.7-14.1,0.6-21.1-0.5c-3.1-0.1-6.1,0.6-8.8,2c-5.6,2.1-10,6.5-12.1,12.1
	c-1.4,2.7-2.1,5.7-2,8.8l0.8,6.1c1,3.8,3.1,7.3,5.9,10.1l4.6,3.6C210.4,395.6,214.4,396.7,218.5,396.7L218.5,396.7z"/>
<path class="st0" d="M437.7,573L435,387.7l-2.7-184.3l-1.5-104c-0.1-6-2.5-11.8-6.7-16.2c-4-4-10.5-7-16.2-6.7
	c-5.9,0.3-12,2.2-16.2,6.7s-6.8,10-6.7,16.2l2.7,185.3l2.7,184.3l1.5,104c0.1,6,2.5,11.8,6.7,16.2c4,4,10.5,7,16.2,6.7
	c5.9-0.3,12-2.2,16.2-6.7S437.8,579.2,437.7,573L437.7,573z"/>
<path class="st0" d="M419.2,441.1c4.5,2.3,9.3,4.1,14.2,5.5c1.5,0.4,3,0.7,4.6,0.9c3.5,0.5,7,1.1,10.6,1.3c3.1,0.2,6.2,0.1,9.4-0.2
	c5.1-0.5,10.2-1.3,15.1-2.6c4.8-1.5,9.5-3.3,14-5.5c2.9-1.4,5.8-3,8.5-4.8c4.3-2.9,8.3-6.1,12-9.6c3.6-3.6,6.9-7.5,9.8-11.7
	c2-2.7,3.8-5.6,5.3-8.6c2.7-5.3,4.9-10.9,6.6-16.6c1.2-4.1,2.1-8.3,2.8-12.6c1-6.2,1.8-12.4,2.2-18.6c0.7-9,0.8-17.9,1-26.9
	l0.7-29.2c0.4-19.6,0.9-39.1,1.4-58.7l0.2-7.2c0.1-3.1-0.6-6.1-2-8.8c-3.7-8.3-11.8-13.8-20.9-14.1l-6.1,0.8
	c-3.8,1.1-7.3,3.1-10.1,5.9l-3.6,4.6c-2.1,3.5-3.1,7.5-3.1,11.6l-1.2,52.7c-0.4,17.5-0.8,35.1-1.2,52.6c-0.1,8.8-0.7,17.7-1.7,26.5
	l0.8-6.1c-1,8-3,15.8-6,23.2l2.3-5.5c-1.9,4.5-4.4,8.8-7.4,12.7l3.6-4.6c-3,3.9-6.5,7.4-10.4,10.5l4.6-3.6c-4,3.1-8.4,5.7-13.1,7.7
	l5.5-2.3c-4.7,2-9.7,3.3-14.7,4l6.1-0.8c-4.6,0.6-9.2,0.6-13.8,0l6.1,0.8c-4.2-0.6-8.3-1.7-12.2-3.3l5.5,2.3c-0.7-0.3-1.4-0.6-2.1-1
	c-2.5-1.6-5.5-2.6-8.5-2.7c-9.1-1.1-18,3.2-22.8,11c-2.8,5.3-4.2,11.7-2.3,17.6l2.3,5.5C413,436.3,415.8,439.1,419.2,441.1
	L419.2,441.1z"/>
<path class="st0" d="M375.2,299.4l-1.3,0.2l6.1-0.8c-8.4,1.1-17,1.7-25.4,0.6l6.1,0.8c-4-0.5-7.9-1.5-11.6-3l5.5,2.3
	c-2.5-1.1-4.9-2.4-7.1-4.1l4.6,3.6c-1.8-1.4-3.4-3-4.8-4.8l3.6,4.6c-1.5-2-2.7-4.1-3.7-6.4l2.3,5.5c-1.4-3.5-2.3-7.1-2.8-10.9
	l0.8,6.1c-0.7-5.2-0.8-10.5-1-15.8c-0.2-5.7-0.4-11.5-0.6-17.2c-0.4-11.5-0.6-22.9-0.8-34.4c-0.3-22.9-0.3-45.7,0.2-68.6
	c0.3-12.9,0.6-25.8,1.1-38.7c0.1-3.1-0.6-6.1-2-8.8c-2.1-5.6-6.5-10-12.1-12.1c-2.7-1.4-5.7-2.1-8.8-2l-6.1,0.8
	c-3.8,1.1-7.3,3.1-10.1,5.9l-3.6,4.6c-2.1,3.5-3.1,7.5-3.1,11.5c-0.7,18.6-1.2,37.2-1.4,55.9c-0.2,18.6-0.2,37.3,0.1,56.1
	c0.3,18.4,0.7,36.9,1.7,55.4c0.3,6,1,12,2.2,17.9c0.4,2,1,4.1,1.8,6c1.2,3.4,2.7,6.7,4.5,9.9c1.8,2.8,3.8,5.5,6,8
	c0.9,1.1,2,2.1,3.1,3.1c3.5,3.2,7.4,5.9,11.6,8c4.3,2.1,8.8,3.8,13.5,5c4.9,1,9.8,1.7,14.8,2c6.2,0.4,12.4,0.2,18.6-0.6
	c3.4-0.4,6.8-0.9,10.2-1.4c5.7-1.8,10.5-5.6,13.7-10.6c1.6-2.5,2.6-5.5,2.7-8.5c0.7-3,0.5-6.2-0.4-9.1c-1.8-5.5-5.2-10.9-10.5-13.7
	l-5.5-2.3C383.4,298.3,379.2,298.3,375.2,299.4L375.2,299.4z"/>
</svg>
