<?xml version="1.0" encoding="utf-8"?>
<!-- Generator: Adobe Illustrator 24.0.0, SVG Export Plug-In . SVG Version: 6.00 Build 0)  -->
<svg version="1.1" id="Layer_1" xmlns="http://www.w3.org/2000/svg" xmlns:xlink="http://www.w3.org/1999/xlink" x="0px" y="0px"
	 viewBox="0 0 841.9 595.3" style="enable-background:new 0 0 841.9 595.3;" xml:space="preserve">
<style type="text/css">
	.st0{fill:#EEE8E4;}
	.st1{display:none;}
	.st2{display:inline;fill:#2E2E2F;stroke:#EEE8E4;stroke-miterlimit:10;}
	.st3{display:inline;fill:#363436;}
	.st4{display:inline;fill:#EEE8E4;}
	.st5{display:inline;fill:#EF4270;}
	.st6{display:inline;fill:#51C7E3;}
	.st7{fill:none;stroke:#201E20;stroke-miterlimit:10;}
	.st8{fill:#625252;}
	.st9{fill:none;stroke:#625252;stroke-miterlimit:10;}
	.st10{fill:none;}
</style>
<g id="Layer_4">
	<rect class="st0" width="841.5" height="595.3"/>
</g>
<g id="Layer_1_1_">
</g>
<g id="colors" class="st1">
	<path class="st2" d="M0.4,389.2"/>
	<circle class="st3" cx="65.1" cy="51.2" r="14.5"/>
	<circle class="st4" cx="65.1" cy="86.8" r="14.5"/>
	<circle class="st5" cx="65.1" cy="122.3" r="14.5"/>
	<circle class="st6" cx="65.1" cy="158.4" r="14.5"/>
</g>
<g id="Layer_7">
</g>
<g id="Layer_12">
</g>
<g id="Layer_11">
</g>
<g id="Layer_9">
	<path class="st7" d="M773.7,590.6c17.2,0.2,34.4,0.5,51.6,0.2"/>
	<path class="st7" d="M-0.8,590.1c16.9-1.4,33.5,0.6,50-1.4c33.1-2,66.2,3,99.3,2c3.8,0,6.4-2,10.2-2c11.5,2,24.2,2,35.1,1.6"/>
	<g>
		<g>
			<path class="st8" d="M684.7,604.2c0.4,0.1,0.7,0.2,1.1,0.3c0.3,0.1,0.6,0.1,0.9,0c0.2,0,0.4-0.1,0.6-0.1c0.2-0.1,0.4-0.1,0.5-0.2
				c0.1-0.1,0.2-0.1,0.3-0.2c0.1-0.1,0.2-0.2,0.3-0.3c0-0.1,0-0.1,0-0.2c-0.1-0.1-0.1-0.2-0.3-0.2c-0.4-0.1-0.7-0.2-1.1-0.3
				c-0.3-0.1-0.6-0.1-0.9,0c-0.2,0-0.4,0.1-0.6,0.1c-0.2,0.1-0.4,0.1-0.5,0.2c-0.1,0.1-0.2,0.1-0.3,0.2c-0.1,0.1-0.2,0.2-0.3,0.3
				c0,0.1,0,0.1,0,0.2C684.5,604.1,684.6,604.1,684.7,604.2L684.7,604.2z"/>
		</g>
	</g>
	<g>
		<g>
			<path class="st8" d="M677.1,605.9c0.7,0,1.3,0,2,0c0.2,0,0.4-0.1,0.6-0.1c0.2-0.1,0.4-0.1,0.5-0.3c0.1-0.1,0.3-0.2,0.3-0.4
				c0.1-0.1,0.2-0.3,0.2-0.4c0-0.3-0.1-0.6-0.4-0.8c-0.1,0-0.2-0.1-0.3-0.1c-0.2-0.1-0.5-0.1-0.7-0.1c-0.7,0-1.3,0-2,0
				c-0.2,0-0.4,0.1-0.6,0.1c-0.2,0.1-0.4,0.1-0.5,0.3c-0.1,0.1-0.3,0.2-0.3,0.4c-0.1,0.1-0.2,0.3-0.2,0.4c0,0.3,0.1,0.6,0.4,0.8
				c0.1,0,0.2,0.1,0.3,0.1C676.6,605.9,676.8,605.9,677.1,605.9L677.1,605.9z"/>
		</g>
	</g>
	<g>
		<g>
			<path class="st8" d="M682.1,606.8c0.1,0.1,0.1,0.1,0.2,0.2c0.1,0,0.2,0.1,0.3,0.1s0.3,0,0.4,0c0.2,0,0.4-0.1,0.6-0.1
				c0.2,0,0.4-0.1,0.6-0.2c0.1,0,0.2-0.1,0.3-0.1c0.2-0.1,0.3-0.2,0.5-0.3l0.1-0.1c0.1-0.1,0-0.2-0.1-0.2c-0.1-0.1-0.1-0.1-0.2-0.2
				c-0.1,0-0.2-0.1-0.3-0.1s-0.3,0-0.4,0c-0.2,0-0.4,0.1-0.6,0.1c-0.2,0-0.4,0.1-0.6,0.2c-0.1,0-0.2,0.1-0.3,0.1
				c-0.2,0.1-0.3,0.2-0.5,0.3l-0.1,0.1C682,606.7,682,606.8,682.1,606.8L682.1,606.8z"/>
		</g>
	</g>
	<g>
		<g>
			<path class="st8" d="M724.8,604.2c0.1,0,0.3,0,0.4,0c0.2,0,0.4,0,0.6-0.1c0.2,0,0.4-0.1,0.6-0.2c0.2-0.1,0.3-0.1,0.5-0.2
				c0.1-0.1,0.2-0.2,0.3-0.3c0-0.1,0.1-0.1,0.1-0.2c0-0.1,0-0.2-0.1-0.3c-0.1,0-0.1-0.1-0.2-0.1c-0.2-0.1-0.4-0.1-0.6-0.1
				c-0.1,0-0.3,0-0.4,0c-0.2,0-0.4,0-0.6,0.1c-0.2,0-0.4,0.1-0.6,0.2c-0.2,0.1-0.3,0.1-0.5,0.2c-0.1,0.1-0.2,0.2-0.3,0.3
				c0,0.1-0.1,0.1-0.1,0.2c0,0.1,0,0.2,0.1,0.3c0.1,0,0.1,0.1,0.2,0.1C724.4,604.2,724.6,604.2,724.8,604.2L724.8,604.2z"/>
		</g>
	</g>
	<g>
		<g>
			<path class="st8" d="M728.4,605c0.1,0,0.1,0,0.2,0c0.2,0,0.3,0,0.5,0s0.4-0.1,0.6-0.1c0.2,0,0.4-0.1,0.5-0.2
				c0.2-0.1,0.3-0.1,0.4-0.2c0.1-0.1,0.1-0.1,0.2-0.2c0.1-0.1,0.1-0.2,0.1-0.3l-0.1-0.1c-0.1-0.1-0.3-0.1-0.4-0.1
				c-0.1,0-0.1,0-0.2,0c-0.2,0-0.3,0-0.5,0s-0.4,0.1-0.6,0.1c-0.2,0-0.4,0.1-0.5,0.2c-0.2,0.1-0.3,0.1-0.4,0.2
				c-0.1,0.1-0.1,0.1-0.2,0.2c-0.1,0.1-0.1,0.2-0.1,0.3l0.1,0.1C728.1,605,728.2,605,728.4,605L728.4,605z"/>
		</g>
	</g>
	<g>
		<g>
			<path class="st8" d="M612.9,607.4c0.2,0,0.4,0,0.7,0c0.2,0,0.4-0.1,0.6-0.1c0.2-0.1,0.4-0.1,0.5-0.3c0.1-0.1,0.3-0.2,0.3-0.4
				c0.1-0.1,0.2-0.3,0.2-0.4c0-0.1,0-0.2,0-0.3c-0.1-0.2-0.2-0.3-0.3-0.5c-0.1,0-0.2-0.1-0.3-0.1c-0.2-0.1-0.5-0.1-0.7-0.1
				s-0.4,0-0.7,0c-0.2,0-0.4,0.1-0.6,0.1c-0.2,0.1-0.4,0.1-0.5,0.3c-0.1,0.1-0.3,0.2-0.3,0.4c-0.1,0.1-0.2,0.3-0.2,0.4
				c0,0.1,0,0.2,0,0.3c0.1,0.2,0.2,0.3,0.3,0.5c0.1,0,0.2,0.1,0.3,0.1C612.4,607.4,612.7,607.5,612.9,607.4L612.9,607.4z"/>
		</g>
	</g>
	<g>
		<g>
			<path class="st8" d="M615.5,608.8c0.4,0,0.7,0,1.1,0c0.2,0,0.4,0,0.6-0.1c0.2,0,0.4-0.1,0.6-0.2c0.2-0.1,0.3-0.2,0.5-0.3
				c0.1-0.1,0.2-0.2,0.3-0.3c0-0.1,0.1-0.2,0.1-0.2c0-0.2,0-0.3-0.1-0.4c-0.1,0-0.1-0.1-0.2-0.1c-0.2-0.1-0.4-0.1-0.6-0.1
				c-0.4,0-0.7,0-1.1,0c-0.2,0-0.4,0-0.6,0.1c-0.2,0-0.4,0.1-0.6,0.2c-0.2,0.1-0.3,0.2-0.5,0.3c-0.1,0.1-0.2,0.2-0.3,0.3
				c0,0.1-0.1,0.2-0.1,0.2c0,0.2,0,0.3,0.1,0.4c0.1,0,0.1,0.1,0.2,0.1C615.1,608.7,615.3,608.8,615.5,608.8L615.5,608.8z"/>
		</g>
	</g>
	<g>
		<g>
			<path class="st8" d="M622.3,607.3c0.1,0,0.1,0,0.2,0c0.2,0,0.4,0,0.6,0c0.2,0,0.4-0.1,0.6-0.2c0.2-0.1,0.3-0.2,0.5-0.3
				c0.1-0.1,0.2-0.2,0.3-0.3c0-0.1,0.1-0.2,0.1-0.2c0-0.2,0-0.3-0.1-0.4c-0.1-0.1-0.1-0.1-0.2-0.2c-0.2-0.1-0.4-0.2-0.6-0.2
				c-0.1,0-0.1,0-0.2,0c-0.2,0-0.4,0-0.6,0c-0.2,0-0.4,0.1-0.6,0.2c-0.2,0.1-0.3,0.2-0.5,0.3c-0.1,0.1-0.2,0.2-0.3,0.3
				c0,0.1-0.1,0.2-0.1,0.2c0,0.2,0,0.3,0.1,0.4c0.1,0.1,0.1,0.1,0.2,0.2C621.9,607.2,622.1,607.3,622.3,607.3L622.3,607.3z"/>
		</g>
	</g>
	<g>
		<g>
			<path class="st8" d="M800.7,609.2c0.3,0.1,0.6,0.1,0.9,0.2c0.2,0,0.4,0,0.6,0c0.2,0,0.4-0.1,0.6-0.2c0.2-0.1,0.3-0.2,0.4-0.3
				c0.1-0.1,0.2-0.2,0.3-0.4c0-0.1,0.1-0.2,0.1-0.3c0-0.2,0-0.4-0.1-0.6c-0.1-0.1-0.1-0.1-0.2-0.2c-0.2-0.1-0.4-0.2-0.6-0.2
				c-0.3-0.1-0.6-0.1-0.9-0.2c-0.2,0-0.4,0-0.6,0c-0.2,0-0.4,0.1-0.6,0.2c-0.2,0.1-0.3,0.2-0.4,0.3c-0.1,0.1-0.2,0.2-0.3,0.4
				c0,0.1-0.1,0.2-0.1,0.3c0,0.2,0,0.4,0.1,0.6c0.1,0.1,0.1,0.1,0.2,0.2C800.3,609.1,800.5,609.2,800.7,609.2L800.7,609.2z"/>
		</g>
	</g>
	<g>
		<g>
			<path class="st8" d="M812.9,609.9c0.2,0,0.4,0,0.7,0c0.2,0,0.4-0.1,0.6-0.1c0.2-0.1,0.4-0.1,0.5-0.3c0.1-0.1,0.3-0.2,0.3-0.4
				c0.1-0.1,0.2-0.3,0.2-0.4c0-0.1,0-0.2,0-0.3c-0.1-0.2-0.2-0.3-0.3-0.5c-0.1,0-0.2-0.1-0.3-0.1c-0.2-0.1-0.5-0.1-0.7-0.1
				s-0.4,0-0.7,0c-0.2,0-0.4,0.1-0.6,0.1c-0.2,0.1-0.4,0.1-0.5,0.3c-0.1,0.1-0.3,0.2-0.3,0.4c-0.1,0.1-0.2,0.3-0.2,0.4
				c0,0.1,0,0.2,0,0.3c0.1,0.2,0.2,0.3,0.3,0.5c0.1,0,0.2,0.1,0.3,0.1C812.4,609.9,812.6,610,812.9,609.9L812.9,609.9z"/>
		</g>
	</g>
	<g>
		<g>
			<path class="st8" d="M795.3,614.9c0.5,0.1,1,0.1,1.5,0.1c0.5-0.1,1-0.2,1.5-0.4c0.2-0.1,0.3-0.2,0.5-0.3c0.1-0.1,0.2-0.2,0.3-0.3
				c0.1-0.2,0.2-0.5,0-0.7c-0.1-0.1-0.1-0.1-0.2-0.2c-0.2-0.1-0.4-0.1-0.6-0.2c-0.4,0-0.8,0.1-1.1,0.2c-0.1,0-0.2,0.1-0.3,0.1
				c0.1,0,0.3-0.1,0.4-0.1c-0.1,0-0.2,0.1-0.3,0.1c0.1,0,0.3,0,0.4-0.1c-0.1,0-0.3,0-0.4,0c0.1,0,0.2,0,0.4,0c-0.1,0-0.3,0-0.4,0
				c0.1,0,0.2,0,0.3,0h-0.1c-0.2,0-0.3-0.1-0.5,0c-0.2,0-0.4,0-0.6,0.1c-0.2,0-0.4,0.1-0.5,0.2c-0.2,0.1-0.3,0.2-0.4,0.3
				c-0.2,0.2-0.4,0.4-0.3,0.7C794.8,614.7,795.1,614.9,795.3,614.9L795.3,614.9z"/>
		</g>
	</g>
	<g>
		<g>
			<path class="st8" d="M816.2,612.1c0.2,0,0.4,0,0.7,0c0.2,0,0.4-0.1,0.6-0.1c0.2-0.1,0.4-0.1,0.5-0.3c0.1-0.1,0.3-0.2,0.3-0.4
				c0.1-0.1,0.2-0.3,0.2-0.4c0-0.1,0-0.2,0-0.3c-0.1-0.2-0.2-0.3-0.3-0.5c-0.1,0-0.2-0.1-0.3-0.1c-0.2-0.1-0.5-0.1-0.7-0.1
				s-0.4,0-0.7,0c-0.2,0-0.4,0.1-0.6,0.1c-0.2,0.1-0.4,0.1-0.5,0.3c-0.1,0.1-0.3,0.2-0.3,0.4c-0.1,0.1-0.2,0.3-0.2,0.4
				c0,0.1,0,0.2,0,0.3c0.1,0.2,0.2,0.3,0.3,0.5c0.1,0,0.2,0.1,0.3,0.1C815.7,612.1,815.9,612.1,816.2,612.1L816.2,612.1z"/>
		</g>
	</g>
	<g>
		<g>
			<path class="st8" d="M496.9,671.2c0.6,0,1.6-0.2,1.9-0.8s-0.2-1-0.8-1c-0.6,0-1.6,0.2-1.9,0.8
				C495.8,670.8,496.3,671.2,496.9,671.2L496.9,671.2z"/>
		</g>
	</g>
	<g>
		<g>
			<path class="st8" d="M504.5,669.1c0.6,0,1.6-0.2,1.9-0.8s-0.2-0.9-0.8-0.9c-0.6,0-1.6,0.2-1.9,0.8
				C503.5,668.8,504,669.1,504.5,669.1L504.5,669.1z"/>
		</g>
	</g>
	<g>
		<g>
			<path class="st8" d="M501.5,674.8c0.7,0,1.6-0.2,1.9-0.9c0.3-0.6-0.2-1.1-0.9-1.1c-0.7,0-1.6,0.2-1.9,0.9
				C500.4,674.3,500.9,674.8,501.5,674.8L501.5,674.8z"/>
		</g>
	</g>
	<g>
		<g>
			<path class="st8" d="M613.3,651.2c0.6,0,1.6-0.2,1.9-0.8c0.3-0.6-0.2-0.9-0.8-0.9s-1.6,0.2-1.9,0.8
				C612.2,650.9,612.7,651.2,613.3,651.2L613.3,651.2z"/>
		</g>
	</g>
	<g>
		<g>
			<path class="st8" d="M639,651c0.6,0,1.5-0.1,2-0.5c0.4-0.3,0.5-0.7-0.2-0.7c-0.6,0-1.5,0.1-2,0.5C638.4,650.6,638.3,651,639,651
				L639,651z"/>
		</g>
	</g>
	<g>
		<g>
			<path class="st8" d="M617.8,658.1c1.7,0,2.2-2.2,0.2-2.2C616.4,655.9,615.9,658.1,617.8,658.1L617.8,658.1z"/>
		</g>
	</g>
	<g>
		<g>
			<path class="st8" d="M596.9,689.4c0.5,0,1.6-0.2,1.9-0.8c0.3-0.6-0.3-0.7-0.7-0.7c-0.5,0-1.6,0.2-1.9,0.8
				C595.9,689.2,596.4,689.4,596.9,689.4L596.9,689.4z"/>
		</g>
	</g>
	<g>
		<g>
			<path class="st8" d="M773.1,651.1c0.6,0,1.6-0.2,1.9-0.8c0.3-0.6-0.2-0.8-0.8-0.8s-1.6,0.2-1.9,0.8
				C772.1,650.9,772.6,651.1,773.1,651.1L773.1,651.1z"/>
		</g>
	</g>
	<g>
		<g>
			<path class="st8" d="M815.5,651.5c0.5,0,1.6-0.2,1.9-0.7c0.3-0.5-0.3-0.6-0.7-0.6c-0.5,0-1.6,0.2-1.9,0.7
				C814.4,651.5,815,651.5,815.5,651.5L815.5,651.5z"/>
		</g>
	</g>
	<g>
		<g>
			<path class="st8" d="M811.3,655.5c0.2,0,0.3,0,0.5,0s0.4-0.1,0.6-0.1c0.2-0.1,0.4-0.1,0.5-0.3c0.1-0.1,0.3-0.2,0.3-0.4
				c0.1-0.1,0.2-0.3,0.2-0.4c0-0.1,0-0.2,0-0.3c-0.1-0.2-0.2-0.3-0.3-0.5c-0.1,0-0.2-0.1-0.3-0.1c-0.2-0.1-0.5-0.1-0.7-0.1
				s-0.3,0-0.5,0s-0.4,0.1-0.6,0.1c-0.2,0.1-0.4,0.1-0.5,0.3c-0.1,0.1-0.3,0.2-0.3,0.4c-0.1,0.1-0.2,0.3-0.2,0.4c0,0.1,0,0.2,0,0.3
				c0.1,0.2,0.2,0.3,0.3,0.5c0.1,0,0.2,0.1,0.3,0.1C810.9,655.5,811.1,655.5,811.3,655.5L811.3,655.5z"/>
		</g>
	</g>
	<g>
		<g>
			<path class="st8" d="M716.1,633c0.6,0,1.5-0.2,2-0.5c0.4-0.3,0.5-0.5-0.1-0.5s-1.5,0.2-2,0.5S715.4,633,716.1,633L716.1,633z"/>
		</g>
	</g>
	<g>
		<g>
			<path class="st8" d="M576,728.3c0-0.2,0-0.3,0-0.5c0-0.1,0-0.2-0.1-0.3c0-0.1-0.1-0.2-0.2-0.2c-0.1-0.1-0.3-0.1-0.4-0.1
				c-0.2,0-0.4,0-0.5,0s-0.3,0.1-0.4,0.1c-0.2,0.1-0.5,0.2-0.7,0.3c-0.1,0.1-0.2,0.1-0.3,0.2c-0.1,0.1-0.2,0.3-0.3,0.4
				c0,0.2,0,0.3,0,0.5c0,0.1,0,0.2,0.1,0.3c0,0.1,0.1,0.2,0.2,0.2c0.1,0.1,0.3,0.1,0.4,0.1c0.2,0,0.4,0,0.5,0s0.3-0.1,0.4-0.1
				c0.2-0.1,0.5-0.2,0.7-0.3c0.1-0.1,0.2-0.1,0.3-0.2S575.9,728.5,576,728.3L576,728.3z"/>
		</g>
	</g>
	<g>
		<g>
			<path class="st8" d="M601.6,725.8c0.6,0,1.6-0.2,1.9-0.8c0.3-0.6-0.2-1-0.8-1s-1.6,0.2-1.9,0.8
				C600.5,725.4,601,725.8,601.6,725.8L601.6,725.8z"/>
		</g>
	</g>
	<g>
		<g>
			<path class="st8" d="M606.1,728.2c0.5,0,1.6-0.2,1.9-0.7c0.3-0.6-0.3-0.6-0.7-0.6c-0.5,0-1.6,0.2-1.9,0.7
				C605.1,728.1,605.6,728.2,606.1,728.2L606.1,728.2z"/>
		</g>
	</g>
	<g>
		<g>
			<path class="st8" d="M458.2,714.3c0.6,0,1.5-0.1,2-0.5c0.4-0.3,0.5-0.6-0.2-0.6c-0.6,0-1.5,0.1-2,0.5
				C457.7,713.9,457.6,714.3,458.2,714.3L458.2,714.3z"/>
		</g>
	</g>
	<g>
		<g>
			<path class="st8" d="M570.9,642.4c0.6,0,1.6-0.2,1.9-0.8c0.3-0.6-0.2-0.8-0.8-0.8s-1.6,0.2-1.9,0.8S570.4,642.4,570.9,642.4
				L570.9,642.4z"/>
		</g>
	</g>
	<g>
		<g>
			<path class="st8" d="M498.2,724.7c0.5,0,1.6-0.2,1.9-0.7s-0.3-0.6-0.7-0.6c-0.5,0-1.6,0.2-1.9,0.7
				C497.2,724.6,497.8,724.7,498.2,724.7L498.2,724.7z"/>
		</g>
	</g>
	<g>
		<g>
			<path class="st8" d="M47.3,685.6c0.6,0,1.6-0.2,1.9-0.8c0.3-0.6-0.2-1-0.8-1s-1.6,0.2-1.9,0.8C46.2,685.3,46.7,685.6,47.3,685.6
				L47.3,685.6z"/>
		</g>
	</g>
	<g>
		<g>
			<path class="st8" d="M73.3,685.4c0.5,0,1.6-0.2,1.9-0.7c0.3-0.6-0.3-0.7-0.7-0.7c-0.5,0-1.6,0.2-1.9,0.7
				C72.3,685.3,72.8,685.4,73.3,685.4L73.3,685.4z"/>
		</g>
	</g>
	<g>
		<g>
			<path class="st8" d="M51.4,692.1c0.6,0,1.6-0.2,1.9-0.8c0.3-0.6-0.2-0.8-0.8-0.8s-1.6,0.2-1.9,0.8
				C50.3,691.9,50.9,692.1,51.4,692.1L51.4,692.1z"/>
		</g>
	</g>
	<g>
		<g>
			<path class="st8" d="M30.9,723.7c0.5,0,1.6-0.2,1.9-0.7c0.3-0.6-0.3-0.6-0.7-0.6c-0.5,0-1.6,0.2-1.9,0.7
				C29.9,723.6,30.5,723.7,30.9,723.7L30.9,723.7z"/>
		</g>
	</g>
	<path class="st7" d="M191.5,590.1c16.9-1.4,33.5,0.6,50-1.4c33.1-2,66.2,3,99.3,2c3.8,0,6.4-2,10.2-2c11.5,2,24.2,2,35.1,1.6"/>
	<path class="st7" d="M386.1,590.1c16.9-1.4,33.5,0.6,50-1.4c33.1-2,66.2,3,99.3,2c3.8,0,6.4-2,10.2-2c11.5,2,24.2,2,35.1,1.6"/>
	<path class="st7" d="M579.9,590.1c16.9-1.4,33.5,0.6,50-1.4c33.1-2,66.2,3,99.3,2c3.8,0,6.4-2,10.2-2c11.5,2,24.2,2,35.1,1.6"/>
	<path class="st7" d="M791.1,590.4c17.2,0.2,34.4,0.5,51.6,0.2"/>
</g>
<g id="Layer_15">
	<g>
		<g>
			<path class="st0" d="M313.9,132.9c3.2,0,3.2-5,0-5C310.7,127.9,310.7,132.9,313.9,132.9L313.9,132.9z"/>
		</g>
	</g>
	<g>
		<g>
			<path class="st0" d="M346.1,67.8c3.2,0,3.2-5,0-5C342.9,62.8,342.9,67.8,346.1,67.8L346.1,67.8z"/>
		</g>
	</g>
	<g>
		<g>
			<path class="st0" d="M354.7,80.6c0.6,0,1.6-0.2,1.9-0.8c0.3-0.6-0.2-0.8-0.8-0.8c-0.6,0-1.6,0.2-1.9,0.8
				C353.6,80.4,354.2,80.6,354.7,80.6L354.7,80.6z"/>
		</g>
	</g>
	<g>
		<g>
			<path class="st0" d="M336.3,82.8c0.5,0,1.6-0.2,1.9-0.7s-0.3-0.6-0.7-0.6c-0.5,0-1.6,0.2-1.9,0.7
				C335.3,82.7,335.8,82.8,336.3,82.8L336.3,82.8z"/>
		</g>
	</g>
	<g>
		<g>
			<path class="st0" d="M373.1,137.5c0.6,0,1.6-0.2,1.9-0.8s-0.2-1.1-0.8-1.1c-0.6,0-1.6,0.2-1.9,0.8
				C372,137,372.5,137.5,373.1,137.5L373.1,137.5z"/>
		</g>
	</g>
	<path class="st9" d="M842.6,86.3"/>
</g>
<g id="Layer_10">
</g>
<g id="Layer_13">
</g>
<g id="Layer_14">
</g>
<g id="Layer_16">
</g>
<g id="Layer_2_1_">
</g>
<rect x="542.1" y="663.2" class="st10" width="6.4" height="15.1"/>
<g>
	<g>
		<path class="st8" d="M329.8,594.6c0.4,0.1,0.7,0.2,1.1,0.3c0.2,0,0.3,0,0.5,0s0.4,0,0.6-0.1c0.2,0,0.4-0.1,0.5-0.2
			c0.2-0.1,0.3-0.2,0.4-0.3s0.1-0.1,0.2-0.2c0.1-0.1,0.1-0.3,0.1-0.4c0-0.1-0.1-0.1-0.1-0.2c-0.1-0.1-0.3-0.2-0.5-0.2
			c-0.4-0.1-0.7-0.2-1.1-0.3c-0.2,0-0.3,0-0.5,0s-0.4,0-0.6,0.1c-0.2,0-0.4,0.1-0.5,0.2c-0.2,0.1-0.3,0.2-0.4,0.3s-0.1,0.1-0.2,0.2
			c-0.1,0.1-0.1,0.3-0.1,0.4c0,0.1,0.1,0.1,0.1,0.2C329.4,594.5,329.6,594.6,329.8,594.6L329.8,594.6z"/>
	</g>
</g>
<g>
	<g>
		<path class="st8" d="M321.4,595.9c0.7,0,1.3,0,2,0c0.4,0,0.8-0.1,1.1-0.2c0.2-0.1,0.3-0.2,0.5-0.3c0.1-0.1,0.2-0.2,0.3-0.3
			c0.1-0.2,0.2-0.4,0-0.6c-0.2-0.2-0.5-0.3-0.8-0.3c-0.7,0-1.3,0-2,0c-0.4,0-0.8,0.1-1.1,0.2c-0.2,0.1-0.3,0.2-0.5,0.3
			c-0.1,0.1-0.2,0.2-0.3,0.3c-0.1,0.2-0.2,0.4,0,0.6C320.8,595.8,321.1,595.9,321.4,595.9L321.4,595.9z"/>
	</g>
</g>
<g>
	<g>
		<path class="st8" d="M326.9,597.1c0.1,0.1,0.1,0.1,0.2,0.2c0.1,0.1,0.2,0.1,0.3,0.1c0.1,0,0.3,0,0.4,0c0.2,0,0.4,0,0.6-0.1
			c0.2,0,0.4-0.1,0.6-0.2c0.1,0,0.2-0.1,0.3-0.1c0.2-0.1,0.3-0.2,0.5-0.3l0.1-0.1c0-0.1,0-0.2-0.1-0.2c-0.1-0.1-0.1-0.1-0.2-0.2
			c-0.1-0.1-0.2-0.1-0.3-0.1c-0.1,0-0.3,0-0.4,0c-0.2,0-0.4,0-0.6,0.1c-0.2,0-0.4,0.1-0.6,0.2c-0.1,0-0.2,0.1-0.3,0.1
			c-0.2,0.1-0.3,0.2-0.5,0.3l-0.1,0.1C326.8,597,326.8,597,326.9,597.1L326.9,597.1z"/>
	</g>
</g>
<g>
	<g>
		<path class="st8" d="M369.6,594.4c0.1,0,0.3,0,0.4,0c0.2,0,0.4,0,0.6-0.1c0.2,0,0.4-0.1,0.6-0.2c0.2-0.1,0.3-0.1,0.5-0.2
			c0.1-0.1,0.2-0.2,0.3-0.3c0-0.1,0.1-0.1,0.1-0.2c0-0.1,0-0.2-0.1-0.3c-0.1,0-0.1-0.1-0.2-0.1c-0.2-0.1-0.4-0.1-0.6-0.1
			c-0.1,0-0.3,0-0.4,0c-0.2,0-0.4,0-0.6,0.1c-0.2,0-0.4,0.1-0.6,0.2c-0.2,0.1-0.3,0.1-0.5,0.2c-0.1,0.1-0.2,0.2-0.3,0.3
			c0,0.1-0.1,0.1-0.1,0.2c0,0.1,0,0.2,0.1,0.3c0.1,0,0.1,0.1,0.2,0.1C369.2,594.4,369.4,594.5,369.6,594.4L369.6,594.4z"/>
	</g>
</g>
<g>
	<g>
		<path class="st8" d="M373.1,595.2c0.1,0,0.1,0,0.2,0c0.2,0,0.3,0,0.5,0s0.4-0.1,0.6-0.1s0.4-0.1,0.5-0.2c0.2-0.1,0.3-0.1,0.4-0.2
			c0.1,0,0.1-0.1,0.2-0.1c0.1-0.1,0.1-0.1,0.1-0.3l-0.1-0.1c-0.1-0.1-0.3-0.1-0.4-0.1s-0.1,0-0.2,0c-0.2,0-0.3,0-0.5,0
			s-0.4,0.1-0.6,0.1s-0.4,0.1-0.5,0.2c-0.2,0.1-0.3,0.1-0.4,0.2c-0.1,0-0.1,0.1-0.2,0.1c-0.1,0.1-0.1,0.1-0.1,0.3l0.1,0.1
			C372.9,595.2,373,595.2,373.1,595.2L373.1,595.2z"/>
	</g>
</g>
<g>
	<g>
		<path class="st8" d="M272.8,595c0.2,0,0.4,0,0.7,0c0.2,0,0.4-0.1,0.6-0.1c0.2-0.1,0.4-0.1,0.5-0.3c0.1-0.1,0.3-0.2,0.3-0.4
			c0.1-0.1,0.2-0.3,0.2-0.4c0-0.1,0-0.2,0-0.3c-0.1-0.2-0.2-0.3-0.3-0.5c-0.1,0-0.2-0.1-0.3-0.1c-0.2-0.1-0.5-0.1-0.7-0.1
			s-0.4,0-0.7,0c-0.2,0-0.4,0.1-0.6,0.1c-0.2,0.1-0.4,0.1-0.5,0.3c-0.1,0.1-0.3,0.2-0.3,0.4c-0.1,0.1-0.2,0.3-0.2,0.4
			c0,0.1,0,0.2,0,0.3c0.1,0.2,0.2,0.3,0.3,0.5c0.1,0,0.2,0.1,0.3,0.1C272.3,595,272.5,595,272.8,595L272.8,595z"/>
	</g>
</g>
<g>
	<g>
		<path class="st8" d="M287.7,591.8c0.4,0,0.7,0,1.1,0c0.2,0,0.4,0,0.6-0.1c0.2,0,0.4-0.1,0.6-0.2c0.2-0.1,0.3-0.1,0.5-0.2
			c0.1-0.1,0.2-0.2,0.3-0.3c0-0.1,0.1-0.1,0.1-0.2c0-0.1,0-0.2-0.1-0.3c-0.1,0-0.1-0.1-0.2-0.1c-0.2-0.1-0.4-0.1-0.6-0.1
			c-0.4,0-0.7,0-1.1,0c-0.2,0-0.4,0-0.6,0.1c-0.2,0-0.4,0.1-0.6,0.2c-0.2,0.1-0.3,0.1-0.5,0.2c-0.1,0.1-0.2,0.2-0.3,0.3
			c0,0.1-0.1,0.1-0.1,0.2c0,0.1,0,0.2,0.1,0.3c0.1,0,0.1,0.1,0.2,0.1C287.3,591.8,287.5,591.9,287.7,591.8L287.7,591.8z"/>
	</g>
</g>
<g>
	<g>
		<path class="st8" d="M305.9,593.7c0.1,0,0.1,0,0.2,0c0.2,0,0.4,0,0.6-0.1c0.2,0,0.4-0.1,0.6-0.2c0.2-0.1,0.3-0.1,0.5-0.2
			c0.1-0.1,0.2-0.1,0.3-0.2c0-0.1,0.1-0.1,0.1-0.2s0-0.2-0.1-0.3c-0.1,0-0.1-0.1-0.2-0.1c-0.2,0-0.4-0.1-0.6-0.1c-0.1,0-0.1,0-0.2,0
			c-0.2,0-0.4,0-0.6,0.1c-0.2,0-0.4,0.1-0.6,0.2c-0.2,0.1-0.3,0.1-0.5,0.2c-0.1,0.1-0.2,0.1-0.3,0.2c0,0.1-0.1,0.1-0.1,0.2
			s0,0.2,0.1,0.3c0.1,0,0.1,0.1,0.2,0.1C305.5,593.7,305.7,593.7,305.9,593.7L305.9,593.7z"/>
	</g>
</g>
<g>
	<g>
		<path class="st8" d="M428.7,593.5c0.3,0.1,0.6,0.1,0.9,0.2c0.1,0.1,0.3,0.1,0.4,0.1c0.2,0,0.3,0,0.5,0s0.4-0.1,0.6-0.1
			c0.2-0.1,0.4-0.1,0.5-0.2c0.1-0.1,0.2-0.1,0.3-0.2c0.1-0.1,0.2-0.2,0.3-0.4c0-0.1,0-0.1,0-0.2c-0.1-0.1-0.1-0.2-0.3-0.3
			c-0.3-0.1-0.6-0.1-0.9-0.2c-0.1-0.1-0.3-0.1-0.4-0.1c-0.2,0-0.3,0-0.5,0s-0.4,0.1-0.6,0.1c-0.2,0.1-0.4,0.1-0.5,0.2
			c-0.1,0.1-0.2,0.1-0.3,0.2c-0.1,0.1-0.2,0.2-0.3,0.4c0,0.1,0,0.1,0,0.2C428.5,593.4,428.6,593.5,428.7,593.5L428.7,593.5z"/>
	</g>
</g>
<g>
	<g>
		<path class="st8" d="M411.5,594.5c0.2,0,0.4,0,0.7,0c0.2,0,0.4,0,0.6-0.1c0.2,0,0.4-0.1,0.6-0.2c0.2-0.1,0.3-0.1,0.5-0.3
			c0.1-0.1,0.2-0.2,0.3-0.3c0-0.1,0.1-0.1,0.1-0.2c0-0.1,0-0.3-0.1-0.4c-0.1,0-0.1-0.1-0.2-0.1c-0.2-0.1-0.4-0.1-0.6-0.1
			s-0.4,0-0.7,0c-0.2,0-0.4,0-0.6,0.1c-0.2,0-0.4,0.1-0.6,0.2c-0.2,0.1-0.3,0.1-0.5,0.3c-0.1,0.1-0.2,0.2-0.3,0.3
			c0,0.1-0.1,0.1-0.1,0.2c0,0.1,0,0.3,0.1,0.4c0.1,0,0.1,0.1,0.2,0.1C411.1,594.5,411.3,594.5,411.5,594.5L411.5,594.5z"/>
	</g>
</g>
<g>
	<g>
		<path class="st8" d="M396.8,592.8c0.5,0.1,1,0.1,1.5,0.1c0.5-0.1,1-0.2,1.5-0.4c0.2-0.1,0.3-0.2,0.5-0.3c0.1-0.1,0.2-0.2,0.3-0.3
			c0.1-0.2,0.2-0.5,0-0.7c-0.1-0.1-0.1-0.1-0.2-0.2c-0.2-0.1-0.4-0.2-0.6-0.2c-0.4,0-0.8,0.1-1.1,0.2c-0.1,0-0.1,0.1-0.2,0.1
			c0.1,0,0.3-0.1,0.4-0.1c-0.1,0-0.2,0.1-0.4,0.1c0.1,0,0.3,0,0.4-0.1c-0.1,0-0.3,0-0.4,0c0.1,0,0.2,0,0.4,0c-0.1,0-0.3,0-0.4,0
			c0.1,0,0.2,0,0.3,0.1h-0.1c-0.2,0-0.3-0.1-0.5,0c-0.2,0-0.4,0-0.6,0.1c-0.2,0-0.4,0.1-0.5,0.2c-0.2,0.1-0.3,0.2-0.4,0.3
			c-0.2,0.2-0.4,0.4-0.3,0.7C396.3,592.6,396.5,592.7,396.8,592.8L396.8,592.8z"/>
	</g>
</g>
<g>
	<g>
		<path class="st8" d="M349.9,592.7c0.2,0,0.4,0,0.7,0c0.2,0,0.4,0,0.6-0.1c0.2,0,0.4-0.1,0.6-0.2c0.2-0.1,0.3-0.1,0.5-0.3
			c0.1-0.1,0.2-0.2,0.3-0.3c0-0.1,0.1-0.1,0.1-0.2c0-0.1,0-0.3-0.1-0.4c-0.1,0-0.1-0.1-0.2-0.1c-0.2-0.1-0.4-0.1-0.6-0.1
			s-0.4,0-0.7,0c-0.2,0-0.4,0-0.6,0.1c-0.2,0-0.4,0.1-0.6,0.2c-0.2,0.1-0.3,0.1-0.5,0.3c-0.1,0.1-0.2,0.2-0.3,0.3
			c0,0.1-0.1,0.1-0.1,0.2c0,0.1,0,0.3,0.1,0.4c0.1,0,0.1,0.1,0.2,0.1C349.5,592.7,349.7,592.7,349.9,592.7L349.9,592.7z"/>
	</g>
</g>
<g>
	<g>
		<path class="st8" d="M146.2,681.3c1.7,0,2.2-2.2,0.2-2.2C144.8,679,144.3,681.3,146.2,681.3L146.2,681.3z"/>
	</g>
</g>
<g>
	<g>
		<path class="st8" d="M153.4,678.9c0.6,0,1.6-0.2,1.9-0.8c0.3-0.6-0.2-0.8-0.8-0.8s-1.6,0.2-1.9,0.8
			C152.4,678.7,152.9,678.9,153.4,678.9L153.4,678.9z"/>
	</g>
</g>
<g>
	<g>
		<path class="st8" d="M150.4,684.6c0.6,0,1.6-0.2,1.9-0.8c0.3-0.6-0.2-1-0.8-1s-1.6,0.2-1.9,0.8
			C149.3,684.2,149.8,684.6,150.4,684.6L150.4,684.6z"/>
	</g>
</g>
<g>
	<g>
		<path class="st8" d="M262.2,661.2c0.6,0,1.6-0.2,1.9-0.8s-0.2-1.1-0.8-1.1c-0.6,0-1.6,0.2-1.9,0.8
			C261.1,660.7,261.6,661.2,262.2,661.2L262.2,661.2z"/>
	</g>
</g>
<g>
	<g>
		<path class="st8" d="M287.9,660.8c0.6,0,1.5-0.1,2-0.5c0.4-0.3,0.5-0.7-0.2-0.7c-0.6,0-1.5,0.1-2,0.5
			C287.3,660.5,287.2,660.8,287.9,660.8L287.9,660.8z"/>
	</g>
</g>
<g>
	<g>
		<path class="st8" d="M266.3,667.8c0.6,0,1.6-0.2,1.9-0.8s-0.2-1.1-0.8-1.1c-0.6,0-1.6,0.2-1.9,0.8S265.7,667.8,266.3,667.8
			L266.3,667.8z"/>
	</g>
</g>
<g>
	<g>
		<path class="st8" d="M245.9,699.5c0.6,0,1.6-0.2,1.9-0.8c0.3-0.6-0.2-1.1-0.8-1.1s-1.6,0.2-1.9,0.8S245.3,699.5,245.9,699.5
			L245.9,699.5z"/>
	</g>
</g>
<g>
	<g>
		<path class="st8" d="M421.6,660.8c0.6,0,1.5-0.2,2-0.5c0.4-0.3,0.5-0.5-0.1-0.5s-1.5,0.2-2,0.5C421.1,660.5,421,660.8,421.6,660.8
			L421.6,660.8z"/>
	</g>
</g>
<g>
	<g>
		<path class="st8" d="M464.4,661.5c0.6,0,1.6-0.2,1.9-0.8s-0.3-0.7-0.8-0.7c-0.6,0-1.6,0.2-1.9,0.8
			C463.3,661.3,463.9,661.5,464.4,661.5L464.4,661.5z"/>
	</g>
</g>
<g>
	<g>
		<path class="st8" d="M459.5,664.9c0.2,0,0.3,0,0.5,0s0.3,0,0.5,0s0.4-0.1,0.6-0.1s0.4-0.1,0.5-0.2c0.2-0.1,0.3-0.1,0.4-0.2
			c0.1-0.1,0.1-0.1,0.2-0.2c0.1-0.1,0.1-0.2,0.1-0.3l-0.1-0.1c-0.1-0.1-0.3-0.1-0.4-0.1c-0.2,0-0.3,0-0.5,0s-0.3,0-0.5,0
			s-0.4,0.1-0.6,0.1s-0.4,0.1-0.5,0.2c-0.2,0.1-0.3,0.1-0.4,0.2c-0.1,0.1-0.1,0.1-0.2,0.2c-0.1,0.1-0.1,0.2-0.1,0.3l0.1,0.1
			C459.2,664.9,459.3,664.9,459.5,664.9L459.5,664.9z"/>
	</g>
</g>
<g>
	<g>
		<path class="st8" d="M365.4,643.3c0.6,0,1.6-0.2,1.9-0.8s-0.2-1-0.8-1c-0.6,0-1.6,0.2-1.9,0.8
			C364.3,642.8,364.8,643.3,365.4,643.3L365.4,643.3z"/>
	</g>
</g>
<g>
	<g>
		<path class="st8" d="M224.9,738c0-0.2,0-0.3,0-0.5c0-0.1-0.1-0.2-0.2-0.2c-0.1-0.1-0.2-0.1-0.4-0.1s-0.3,0-0.5,0s-0.4,0-0.6,0.1
			c-0.1,0-0.3,0.1-0.4,0.1c-0.2,0.1-0.4,0.2-0.6,0.3c-0.1,0.1-0.1,0.1-0.2,0.2c-0.1,0.1-0.1,0.2-0.1,0.4s0,0.3,0,0.5
			c0,0.1,0.1,0.2,0.2,0.2c0.1,0.1,0.2,0.1,0.4,0.1s0.3,0,0.5,0s0.4,0,0.6-0.1c0.1,0,0.3-0.1,0.4-0.1c0.2-0.1,0.4-0.2,0.6-0.3
			c0.1-0.1,0.1-0.1,0.2-0.2C224.9,738.2,224.9,738.1,224.9,738L224.9,738z"/>
	</g>
</g>
<g>
	<g>
		<path class="st8" d="M250.4,735.5c0.5,0,1.6-0.2,1.9-0.7c0.3-0.6-0.3-0.6-0.7-0.6c-0.5,0-1.6,0.2-1.9,0.7
			C249.4,735.4,250,735.5,250.4,735.5L250.4,735.5z"/>
	</g>
</g>
<g>
	<g>
		<path class="st8" d="M255,738.1c0.6,0,1.6-0.2,1.9-0.8s-0.2-0.8-0.8-0.8c-0.6,0-1.6,0.2-1.9,0.8C254,737.9,254.5,738.1,255,738.1
			L255,738.1z"/>
	</g>
</g>
<g>
	<g>
		<path class="st8" d="M107.5,724.3c0.6,0,1.6-0.2,1.9-0.8s-0.2-0.8-0.8-0.8c-0.6,0-1.6,0.2-1.9,0.8
			C106.4,724.1,106.9,724.3,107.5,724.3L107.5,724.3z"/>
	</g>
</g>
<g>
	<g>
		<path class="st8" d="M219.5,652.2c0.6,0,1.5-0.1,2-0.5c0.4-0.3,0.5-0.7-0.2-0.7c-0.6,0-1.5,0.1-2,0.5
			C218.9,651.8,218.8,652.2,219.5,652.2L219.5,652.2z"/>
	</g>
</g>
<g>
	<g>
		<path class="st8" d="M147.2,734.7c0.6,0,1.6-0.2,1.9-0.8c0.3-0.6-0.2-0.8-0.8-0.8s-1.6,0.2-1.9,0.8S146.7,734.7,147.2,734.7
			L147.2,734.7z"/>
	</g>
</g>
<rect x="191" y="673.1" class="st10" width="6.4" height="15.1"/>
<g>
	<g>
		<path class="st8" d="M692,713.4c1.7,0,2.2-2.2,0.2-2.2C690.6,711.2,690.1,713.4,692,713.4L692,713.4z"/>
	</g>
</g>
<g>
	<g>
		<path class="st8" d="M699.2,711.1c0.6,0,1.6-0.2,1.9-0.8c0.3-0.6-0.2-0.8-0.8-0.8s-1.6,0.2-1.9,0.8
			C698.2,710.8,698.7,711.1,699.2,711.1L699.2,711.1z"/>
	</g>
</g>
<g>
	<g>
		<path class="st8" d="M696.2,716.8c0.6,0,1.6-0.2,1.9-0.8c0.3-0.6-0.2-1-0.8-1s-1.6,0.2-1.9,0.8
			C695.1,716.4,695.6,716.8,696.2,716.8L696.2,716.8z"/>
	</g>
</g>
<g>
	<g>
		<path class="st8" d="M808.1,693.3c0.6,0,1.6-0.2,1.9-0.8c0.3-0.6-0.2-1.1-0.8-1.1s-1.6,0.2-1.9,0.8
			C806.9,692.9,807.5,693.3,808.1,693.3L808.1,693.3z"/>
	</g>
</g>
<g>
	<g>
		<path class="st8" d="M833.7,693c0.6,0,1.5-0.1,2-0.5c0.4-0.3,0.5-0.7-0.2-0.7c-0.6,0-1.5,0.1-2,0.5C833.1,692.6,833,693,833.7,693
			L833.7,693z"/>
	</g>
</g>
<g>
	<g>
		<path class="st8" d="M812.1,700c0.6,0,1.6-0.2,1.9-0.8c0.3-0.6-0.2-1.1-0.8-1.1s-1.6,0.2-1.9,0.8C811,699.5,811.5,700,812.1,700
			L812.1,700z"/>
	</g>
</g>
<g>
	<g>
		<path class="st8" d="M791.7,731.6c0.6,0,1.6-0.2,1.9-0.8c0.3-0.6-0.2-1.1-0.8-1.1s-1.6,0.2-1.9,0.8
			C790.6,731.2,791.1,731.6,791.7,731.6L791.7,731.6z"/>
	</g>
</g>
<g>
	<g>
		<path class="st8" d="M769.1,731.5c0-0.2,0-0.3,0-0.5c0-0.1-0.1-0.2-0.2-0.2c-0.1-0.1-0.2-0.1-0.4-0.1s-0.3,0-0.5,0s-0.4,0-0.6,0.1
			c-0.1,0-0.3,0.1-0.4,0.1c-0.2,0.1-0.4,0.2-0.6,0.3c-0.1,0.1-0.1,0.1-0.2,0.2c-0.1,0.1-0.1,0.2-0.1,0.4s0,0.3,0,0.5
			c0,0.1,0.1,0.2,0.2,0.2c0.1,0.1,0.2,0.1,0.4,0.1s0.3,0,0.5,0s0.4,0,0.6-0.1c0.1,0,0.3-0.1,0.4-0.1c0.2-0.1,0.4-0.2,0.6-0.3
			c0.1-0.1,0.1-0.1,0.2-0.2C769,731.7,769.1,731.6,769.1,731.5L769.1,731.5z"/>
	</g>
</g>
<g>
	<g>
		<path class="st8" d="M794.6,729c0.5,0,1.6-0.2,1.9-0.7c0.3-0.6-0.3-0.6-0.7-0.6c-0.5,0-1.6,0.2-1.9,0.7
			C793.6,728.9,794.1,729,794.6,729L794.6,729z"/>
	</g>
</g>
<g>
	<g>
		<path class="st8" d="M799.2,731.6c0.6,0,1.6-0.2,1.9-0.8c0.3-0.6-0.2-0.8-0.8-0.8s-1.6,0.2-1.9,0.8
			C798.2,731.4,798.7,731.6,799.2,731.6L799.2,731.6z"/>
	</g>
</g>
<g>
	<g>
		<path class="st8" d="M651.6,717.8c0.6,0,1.6-0.2,1.9-0.8c0.3-0.6-0.2-0.8-0.8-0.8s-1.6,0.2-1.9,0.8
			C650.6,717.6,651.1,717.8,651.6,717.8L651.6,717.8z"/>
	</g>
</g>
<g>
	<g>
		<path class="st8" d="M765.3,684.3c0.6,0,1.5-0.1,2-0.5c0.4-0.3,0.5-0.7-0.2-0.7c-0.6,0-1.5,0.1-2,0.5
			C764.7,683.9,764.6,684.3,765.3,684.3L765.3,684.3z"/>
	</g>
</g>
<g>
	<g>
		<path class="st8" d="M693,724.6c0.6,0,1.6-0.2,1.9-0.8c0.3-0.6-0.2-0.8-0.8-0.8s-1.6,0.2-1.9,0.8
			C691.9,724.4,692.5,724.6,693,724.6L693,724.6z"/>
	</g>
</g>
<rect x="736.8" y="705.2" class="st10" width="6.4" height="15.1"/>
<g>
	<g>
		<path class="st8" d="M272.8,724.9c1.7,0,2.2-2.2,0.2-2.2C271.3,722.7,270.8,724.9,272.8,724.9L272.8,724.9z"/>
	</g>
</g>
<g>
	<g>
		<path class="st8" d="M280,722.6c0.6,0,1.6-0.2,1.9-0.8s-0.2-0.8-0.8-0.8c-0.6,0-1.6,0.2-1.9,0.8
			C278.9,722.3,279.4,722.6,280,722.6L280,722.6z"/>
	</g>
</g>
<g>
	<g>
		<path class="st8" d="M276.9,728.3c0.6,0,1.6-0.2,1.9-0.8s-0.2-1-0.8-1c-0.6,0-1.6,0.2-1.9,0.8
			C275.8,727.9,276.3,728.3,276.9,728.3L276.9,728.3z"/>
	</g>
</g>
<g>
	<g>
		<path class="st8" d="M388.8,704.8c0.6,0,1.6-0.2,1.9-0.8s-0.2-1.1-0.8-1.1c-0.6,0-1.6,0.2-1.9,0.8
			C387.6,704.4,388.2,704.8,388.8,704.8L388.8,704.8z"/>
	</g>
</g>
<g>
	<g>
		<path class="st8" d="M414.4,704.5c0.6,0,1.5-0.1,2-0.5c0.4-0.3,0.5-0.7-0.2-0.7c-0.6,0-1.5,0.1-2,0.5
			C413.9,704.1,413.7,704.5,414.4,704.5L414.4,704.5z"/>
	</g>
</g>
<g>
	<g>
		<path class="st8" d="M392.8,711.5c0.6,0,1.6-0.2,1.9-0.8s-0.2-1.1-0.8-1.1c-0.6,0-1.6,0.2-1.9,0.8S392.2,711.5,392.8,711.5
			L392.8,711.5z"/>
	</g>
</g>
<g>
	<g>
		<path class="st8" d="M372.4,743.1c0.6,0,1.6-0.2,1.9-0.8s-0.2-1.1-0.8-1.1c-0.6,0-1.6,0.2-1.9,0.8
			C371.3,742.7,371.8,743.1,372.4,743.1L372.4,743.1z"/>
	</g>
</g>
<g>
	<g>
		<path class="st8" d="M349.8,743c0-0.2,0-0.3,0-0.5c0-0.1-0.1-0.2-0.2-0.2c-0.1-0.1-0.2-0.1-0.4-0.1c-0.2,0-0.3,0-0.5,0
			s-0.4,0-0.6,0.1c-0.1,0-0.3,0.1-0.4,0.1c-0.2,0.1-0.4,0.2-0.6,0.3c-0.1,0.1-0.1,0.1-0.2,0.2c-0.1,0.1-0.1,0.2-0.1,0.4s0,0.3,0,0.5
			c0,0.1,0.1,0.2,0.2,0.2c0.1,0.1,0.2,0.1,0.4,0.1c0.2,0,0.3,0,0.5,0s0.4,0,0.6-0.1c0.1,0,0.3-0.1,0.4-0.1c0.2-0.1,0.4-0.2,0.6-0.3
			c0.1-0.1,0.1-0.1,0.2-0.2C349.8,743.2,349.8,743.1,349.8,743L349.8,743z"/>
	</g>
</g>
<g>
	<g>
		<path class="st8" d="M375.3,740.5c0.5,0,1.6-0.2,1.9-0.7c0.3-0.6-0.3-0.6-0.7-0.6c-0.5,0-1.6,0.2-1.9,0.7S374.8,740.5,375.3,740.5
			L375.3,740.5z"/>
	</g>
</g>
<g>
	<g>
		<path class="st8" d="M379.9,743.1c0.6,0,1.6-0.2,1.9-0.8s-0.2-0.8-0.8-0.8c-0.6,0-1.6,0.2-1.9,0.8
			C378.9,742.9,379.4,743.1,379.9,743.1L379.9,743.1z"/>
	</g>
</g>
<g>
	<g>
		<path class="st8" d="M232.3,729.3c0.6,0,1.6-0.2,1.9-0.8c0.3-0.6-0.2-0.8-0.8-0.8s-1.6,0.2-1.9,0.8
			C231.3,729.1,231.8,729.3,232.3,729.3L232.3,729.3z"/>
	</g>
</g>
<g>
	<g>
		<path class="st8" d="M346,695.8c0.6,0,1.5-0.1,2-0.5c0.4-0.3,0.5-0.7-0.2-0.7c-0.6,0-1.5,0.1-2,0.5
			C345.4,695.4,345.3,695.8,346,695.8L346,695.8z"/>
	</g>
</g>
<g>
	<g>
		<path class="st8" d="M273.7,736.1c0.6,0,1.6-0.2,1.9-0.8s-0.2-0.8-0.8-0.8c-0.6,0-1.6,0.2-1.9,0.8
			C272.6,735.9,273.2,736.1,273.7,736.1L273.7,736.1z"/>
	</g>
</g>
<rect x="317.5" y="716.7" class="st10" width="6.4" height="15.1"/>
<g>
	<g>
		<path class="st8" d="M37.2,638.7c1.7,0,2.2-2.2,0.2-2.2C35.8,636.5,35.3,638.7,37.2,638.7L37.2,638.7z"/>
	</g>
</g>
<g>
	<g>
		<path class="st8" d="M44.4,636.3c0.6,0,1.6-0.2,1.9-0.8c0.3-0.6-0.2-0.8-0.8-0.8s-1.6,0.2-1.9,0.8
			C43.4,636.1,43.9,636.3,44.4,636.3L44.4,636.3z"/>
	</g>
</g>
<g>
	<g>
		<path class="st8" d="M41.4,642.1c0.6,0,1.6-0.2,1.9-0.8c0.3-0.6-0.2-1-0.8-1s-1.6,0.2-1.9,0.8C40.3,641.7,40.8,642.1,41.4,642.1
			L41.4,642.1z"/>
	</g>
</g>
<g>
	<g>
		<path class="st8" d="M153.2,618.6c0.6,0,1.6-0.2,1.9-0.8c0.3-0.6-0.2-1.1-0.8-1.1s-1.6,0.2-1.9,0.8
			C152.1,618.2,152.6,618.6,153.2,618.6L153.2,618.6z"/>
	</g>
</g>
<g>
	<g>
		<path class="st8" d="M157.3,625.3c0.6,0,1.6-0.2,1.9-0.8c0.3-0.6-0.2-1.1-0.8-1.1s-1.6,0.2-1.9,0.8
			C156.2,624.8,156.7,625.3,157.3,625.3L157.3,625.3z"/>
	</g>
</g>
<g>
	<g>
		<path class="st8" d="M136.9,656.9c0.6,0,1.6-0.2,1.9-0.8c0.3-0.6-0.2-1.1-0.8-1.1s-1.6,0.2-1.9,0.8
			C135.8,656.5,136.3,656.9,136.9,656.9L136.9,656.9z"/>
	</g>
</g>
<g>
	<g>
		<path class="st8" d="M110.4,609.6c0.6,0,1.5-0.1,2-0.5c0.4-0.3,0.5-0.7-0.2-0.7c-0.6,0-1.5,0.1-2,0.5
			C109.9,609.2,109.8,609.6,110.4,609.6L110.4,609.6z"/>
	</g>
</g>
<rect x="82" y="630.5" class="st10" width="6.4" height="15.1"/>
<g>
	<g>
		<path class="st8" d="M191.6,594.7c0.4,0.1,0.7,0.2,1.1,0.3c0.2,0,0.3,0,0.5,0s0.4,0,0.6-0.1c0.2,0,0.4-0.1,0.5-0.2
			c0.2-0.1,0.3-0.2,0.4-0.3s0.1-0.1,0.2-0.2c0.1-0.1,0.1-0.3,0.1-0.4c0-0.1-0.1-0.1-0.1-0.2c-0.1-0.1-0.3-0.2-0.5-0.2
			c-0.4-0.1-0.7-0.2-1.1-0.3c-0.2,0-0.3,0-0.5,0s-0.4,0-0.6,0.1c-0.2,0-0.4,0.1-0.5,0.2c-0.2,0.1-0.3,0.2-0.4,0.3s-0.1,0.1-0.2,0.2
			c-0.1,0.1-0.1,0.3-0.1,0.4c0,0.1,0.1,0.1,0.1,0.2C191.2,594.6,191.4,594.7,191.6,594.7L191.6,594.7z"/>
	</g>
</g>
<g>
	<g>
		<path class="st8" d="M183.2,596c0.7,0,1.3,0,2,0c0.4,0,0.8-0.1,1.1-0.2c0.2-0.1,0.3-0.2,0.5-0.3c0.1-0.1,0.2-0.2,0.3-0.3
			c0.1-0.2,0.2-0.4,0-0.6c-0.2-0.2-0.5-0.3-0.8-0.3c-0.7,0-1.3,0-2,0c-0.4,0-0.8,0.1-1.1,0.2c-0.2,0.1-0.3,0.2-0.5,0.3
			c-0.1,0.1-0.2,0.2-0.3,0.3c-0.1,0.2-0.2,0.4,0,0.6C182.6,595.9,182.9,596,183.2,596L183.2,596z"/>
	</g>
</g>
<g>
	<g>
		<path class="st8" d="M188.7,597.2c0.1,0.1,0.1,0.1,0.2,0.2c0.1,0.1,0.2,0.1,0.3,0.1c0.1,0,0.3,0,0.4,0c0.2,0,0.4,0,0.6-0.1
			c0.2,0,0.4-0.1,0.6-0.2c0.1,0,0.2-0.1,0.3-0.1c0.2-0.1,0.3-0.2,0.5-0.3l0.1-0.1c0-0.1,0-0.2-0.1-0.2c-0.1-0.1-0.1-0.1-0.2-0.2
			c-0.1-0.1-0.2-0.1-0.3-0.1c-0.1,0-0.3,0-0.4,0c-0.2,0-0.4,0-0.6,0.1c-0.2,0-0.4,0.1-0.6,0.2c-0.1,0-0.2,0.1-0.3,0.1
			c-0.2,0.1-0.3,0.2-0.5,0.3l-0.1,0.1C188.6,597.1,188.6,597.1,188.7,597.2L188.7,597.2z"/>
	</g>
</g>
<g>
	<g>
		<path class="st8" d="M231.4,594.5c0.1,0,0.3,0,0.4,0c0.2,0,0.4,0,0.6-0.1c0.2,0,0.4-0.1,0.6-0.2c0.2-0.1,0.3-0.1,0.5-0.2
			c0.1-0.1,0.2-0.2,0.3-0.3c0-0.1,0.1-0.1,0.1-0.2c0-0.1,0-0.2-0.1-0.3c-0.1,0-0.1-0.1-0.2-0.1c-0.2-0.1-0.4-0.1-0.6-0.1
			c-0.1,0-0.3,0-0.4,0c-0.2,0-0.4,0-0.6,0.1c-0.2,0-0.4,0.1-0.6,0.2c-0.2,0.1-0.3,0.1-0.5,0.2c-0.1,0.1-0.2,0.2-0.3,0.3
			c0,0.1-0.1,0.1-0.1,0.2c0,0.1,0,0.2,0.1,0.3c0.1,0,0.1,0.1,0.2,0.1C231,594.5,231.2,594.6,231.4,594.5L231.4,594.5z"/>
	</g>
</g>
<g>
	<g>
		<path class="st8" d="M234.9,595.3c0.1,0,0.1,0,0.2,0c0.2,0,0.3,0,0.5,0s0.4-0.1,0.6-0.1s0.4-0.1,0.5-0.2c0.2-0.1,0.3-0.1,0.4-0.2
			c0.1,0,0.1-0.1,0.2-0.1c0.1-0.1,0.1-0.1,0.1-0.3l-0.1-0.1c-0.1-0.1-0.3-0.1-0.4-0.1s-0.1,0-0.2,0c-0.2,0-0.3,0-0.5,0
			s-0.4,0.1-0.6,0.1s-0.4,0.1-0.5,0.2c-0.2,0.1-0.3,0.1-0.4,0.2c-0.1,0-0.1,0.1-0.2,0.1c-0.1,0.1-0.1,0.1-0.1,0.3l0.1,0.1
			C234.7,595.3,234.8,595.3,234.9,595.3L234.9,595.3z"/>
	</g>
</g>
<g>
	<g>
		<path class="st8" d="M134.6,595.2c0.2,0,0.4,0,0.7,0c0.2,0,0.4-0.1,0.6-0.1c0.2-0.1,0.4-0.1,0.5-0.3c0.1-0.1,0.3-0.2,0.3-0.4
			c0.1-0.1,0.2-0.3,0.2-0.4c0-0.1,0-0.2,0-0.3c-0.1-0.2-0.2-0.3-0.3-0.5c-0.1,0-0.2-0.1-0.3-0.1c-0.2-0.1-0.5-0.1-0.7-0.1
			s-0.4,0-0.7,0c-0.2,0-0.4,0.1-0.6,0.1c-0.2,0.1-0.4,0.1-0.5,0.3c-0.1,0.1-0.3,0.2-0.3,0.4c-0.1,0.1-0.2,0.3-0.2,0.4
			c0,0.1,0,0.2,0,0.3c0.1,0.2,0.2,0.3,0.3,0.5c0.1,0,0.2,0.1,0.3,0.1C134.1,595.2,134.3,595.2,134.6,595.2L134.6,595.2z"/>
	</g>
</g>
<g>
	<g>
		<path class="st8" d="M150.7,593.7c0.4,0,0.7,0,1.1,0c0.2,0,0.4,0,0.6-0.1c0.2,0,0.4-0.1,0.6-0.2c0.2-0.1,0.3-0.1,0.5-0.2
			c0.1-0.1,0.2-0.2,0.3-0.3c0-0.1,0.1-0.1,0.1-0.2c0-0.1,0-0.2-0.1-0.3c-0.1,0-0.1-0.1-0.2-0.1c-0.2-0.1-0.4-0.1-0.6-0.1
			c-0.4,0-0.7,0-1.1,0c-0.2,0-0.4,0-0.6,0.1c-0.2,0-0.4,0.1-0.6,0.2c-0.2,0.1-0.3,0.1-0.5,0.2c-0.1,0.1-0.2,0.2-0.3,0.3
			c0,0.1-0.1,0.1-0.1,0.2c0,0.1,0,0.2,0.1,0.3c0.1,0,0.1,0.1,0.2,0.1C150.3,593.7,150.5,593.8,150.7,593.7L150.7,593.7z"/>
	</g>
</g>
<g>
	<g>
		<path class="st8" d="M167.7,593.8c0.1,0,0.1,0,0.2,0c0.2,0,0.4,0,0.6-0.1c0.2,0,0.4-0.1,0.6-0.2c0.2-0.1,0.3-0.1,0.5-0.2
			c0.1-0.1,0.2-0.1,0.3-0.2c0-0.1,0.1-0.1,0.1-0.2c0-0.1,0-0.2-0.1-0.3c-0.1,0-0.1-0.1-0.2-0.1c-0.2,0-0.4-0.1-0.6-0.1
			c-0.1,0-0.1,0-0.2,0c-0.2,0-0.4,0-0.6,0.1c-0.2,0-0.4,0.1-0.6,0.2c-0.2,0.1-0.3,0.1-0.5,0.2c-0.1,0.1-0.2,0.1-0.3,0.2
			c0,0.1-0.1,0.1-0.1,0.2c0,0.1,0,0.2,0.1,0.3c0.1,0,0.1,0.1,0.2,0.1C167.3,593.8,167.5,593.8,167.7,593.8L167.7,593.8z"/>
	</g>
</g>
<g>
	<g>
		<path class="st8" d="M258.7,593c0.5,0.1,1,0.1,1.5,0.1c0.5-0.1,1-0.2,1.5-0.4c0.2-0.1,0.3-0.2,0.5-0.3c0.1-0.1,0.2-0.2,0.3-0.3
			c0.1-0.2,0.2-0.5,0-0.7c-0.1-0.1-0.1-0.1-0.2-0.2c-0.2-0.1-0.4-0.2-0.6-0.2c-0.4,0-0.8,0.1-1.1,0.2c-0.1,0-0.1,0.1-0.2,0.1
			c0.1,0,0.3-0.1,0.4-0.1c-0.1,0-0.2,0.1-0.4,0.1c0.1,0,0.3,0,0.4-0.1c-0.1,0-0.3,0-0.4,0c0.1,0,0.2,0,0.4,0c-0.1,0-0.3,0-0.4,0
			c0.1,0,0.2,0,0.3,0.1h-0.1c-0.2,0-0.3-0.1-0.5,0c-0.2,0-0.4,0-0.6,0.1c-0.2,0-0.4,0.1-0.5,0.2c-0.2,0.1-0.3,0.2-0.4,0.3
			c-0.2,0.2-0.4,0.4-0.3,0.7C258.2,592.8,258.4,592.9,258.7,593L258.7,593z"/>
	</g>
</g>
<g>
	<g>
		<path class="st8" d="M211.7,592.9c0.2,0,0.4,0,0.7,0c0.2,0,0.4,0,0.6-0.1c0.2,0,0.4-0.1,0.6-0.2c0.2-0.1,0.3-0.1,0.5-0.3
			c0.1-0.1,0.2-0.2,0.3-0.3c0-0.1,0.1-0.1,0.1-0.2c0-0.1,0-0.3-0.1-0.4c-0.1,0-0.1-0.1-0.2-0.1c-0.2-0.1-0.4-0.1-0.6-0.1
			s-0.4,0-0.7,0c-0.2,0-0.4,0-0.6,0.1c-0.2,0-0.4,0.1-0.6,0.2c-0.2,0.1-0.3,0.1-0.5,0.3c-0.1,0.1-0.2,0.2-0.3,0.3
			c0,0.1-0.1,0.1-0.1,0.2c0,0.1,0,0.3,0.1,0.4c0.1,0,0.1,0.1,0.2,0.1C211.3,592.9,211.5,592.9,211.7,592.9L211.7,592.9z"/>
	</g>
</g>
<g>
	<g>
		<path class="st8" d="M53.9,593.2c0.4,0.1,0.7,0.2,1.1,0.3c0.2,0,0.3,0,0.5,0s0.4,0,0.6-0.1c0.2,0,0.4-0.1,0.5-0.2
			c0.2-0.1,0.3-0.2,0.4-0.3s0.1-0.1,0.2-0.2c0.1-0.1,0.1-0.3,0.1-0.4c0-0.1-0.1-0.1-0.1-0.2c-0.1-0.1-0.3-0.2-0.5-0.2
			c-0.4-0.1-0.7-0.2-1.1-0.3c-0.2,0-0.3,0-0.5,0s-0.4,0-0.6,0.1c-0.2,0-0.4,0.1-0.5,0.2c-0.2,0.1-0.3,0.2-0.4,0.3s-0.1,0.1-0.2,0.2
			c-0.1,0.1-0.1,0.3-0.1,0.4c0,0.1,0.1,0.1,0.1,0.2C53.5,593.1,53.7,593.2,53.9,593.2L53.9,593.2z"/>
	</g>
</g>
<g>
	<g>
		<path class="st8" d="M45.5,594.5c0.7,0,1.3,0,2,0c0.4,0,0.8-0.1,1.1-0.2c0.2-0.1,0.3-0.2,0.5-0.3c0.1-0.1,0.2-0.2,0.3-0.3
			c0.1-0.2,0.2-0.4,0-0.6c-0.2-0.2-0.5-0.3-0.8-0.3c-0.7,0-1.3,0-2,0c-0.4,0-0.8,0.1-1.1,0.2c-0.2,0.1-0.3,0.2-0.5,0.3
			c-0.1,0.1-0.2,0.2-0.3,0.3c-0.1,0.2-0.2,0.4,0,0.6C44.9,594.4,45.2,594.5,45.5,594.5L45.5,594.5z"/>
	</g>
</g>
<g>
	<g>
		<path class="st8" d="M51,595.7c0.1,0.1,0.1,0.1,0.2,0.2c0.1,0.1,0.2,0.1,0.3,0.1c0.1,0,0.3,0,0.4,0c0.2,0,0.4,0,0.6-0.1
			c0.2,0,0.4-0.1,0.6-0.2c0.1,0,0.2-0.1,0.3-0.1c0.2-0.1,0.3-0.2,0.5-0.3l0.1-0.1c0-0.1,0-0.2-0.1-0.2c-0.1-0.1-0.1-0.1-0.2-0.2
			c-0.1-0.1-0.2-0.1-0.3-0.1c-0.1,0-0.3,0-0.4,0c-0.2,0-0.4,0-0.6,0.1c-0.2,0-0.4,0.1-0.6,0.2c-0.1,0-0.2,0.1-0.3,0.1
			c-0.2,0.1-0.3,0.2-0.5,0.3l-0.1,0.1C50.9,595.6,50.9,595.6,51,595.7L51,595.7z"/>
	</g>
</g>
<g>
	<g>
		<path class="st8" d="M93.7,593c0.1,0,0.3,0,0.4,0c0.2,0,0.4,0,0.6-0.1c0.2,0,0.4-0.1,0.6-0.2c0.2-0.1,0.3-0.1,0.5-0.2
			c0.1-0.1,0.2-0.2,0.3-0.3c0-0.1,0.1-0.1,0.1-0.2c0-0.1,0-0.2-0.1-0.3c-0.1,0-0.1-0.1-0.2-0.1c-0.2-0.1-0.4-0.1-0.6-0.1
			c-0.1,0-0.3,0-0.4,0c-0.2,0-0.4,0-0.6,0.1c-0.2,0-0.4,0.1-0.6,0.2c-0.2,0.1-0.3,0.1-0.5,0.2c-0.1,0.1-0.2,0.2-0.3,0.3
			c0,0.1-0.1,0.1-0.1,0.2c0,0.1,0,0.2,0.1,0.3c0.1,0,0.1,0.1,0.2,0.1C93.3,593,93.5,593.1,93.7,593L93.7,593z"/>
	</g>
</g>
<g>
	<g>
		<path class="st8" d="M97.2,593.8c0.1,0,0.1,0,0.2,0c0.2,0,0.3,0,0.5,0s0.4-0.1,0.6-0.1s0.4-0.1,0.5-0.2c0.2-0.1,0.3-0.1,0.4-0.2
			c0.1,0,0.1-0.1,0.2-0.1c0.1-0.1,0.1-0.1,0.1-0.3l-0.1-0.1c-0.1-0.1-0.3-0.1-0.4-0.1s-0.1,0-0.2,0c-0.2,0-0.3,0-0.5,0
			s-0.4,0.1-0.6,0.1s-0.4,0.1-0.5,0.2c-0.2,0.1-0.3,0.1-0.4,0.2c-0.1,0-0.1,0.1-0.2,0.1c-0.1,0.1-0.1,0.1-0.1,0.3l0.1,0.1
			C97,593.8,97.1,593.8,97.2,593.8L97.2,593.8z"/>
	</g>
</g>
<g>
	<g>
		<path class="st8" d="M-3.1,593.6c0.2,0,0.4,0,0.7,0c0.2,0,0.4-0.1,0.6-0.1c0.2-0.1,0.4-0.1,0.5-0.3c0.1-0.1,0.3-0.2,0.3-0.4
			c0.1-0.1,0.2-0.3,0.2-0.4c0-0.1,0-0.2,0-0.3c-0.1-0.2-0.2-0.3-0.3-0.5c-0.1,0-0.2-0.1-0.3-0.1c-0.2-0.1-0.5-0.1-0.7-0.1
			s-0.4,0-0.7,0c-0.2,0-0.4,0.1-0.6,0.1c-0.2,0.1-0.4,0.1-0.5,0.3c-0.1,0.1-0.3,0.2-0.3,0.4c-0.1,0.1-0.2,0.3-0.2,0.4
			c0,0.1,0,0.2,0,0.3c0.1,0.2,0.2,0.3,0.3,0.5c0.1,0,0.2,0.1,0.3,0.1C-3.6,593.6-3.4,593.6-3.1,593.6L-3.1,593.6z"/>
	</g>
</g>
<g>
	<g>
		<path class="st8" d="M12.9,593.5c0.4,0,0.7,0,1.1,0c0.2,0,0.4,0,0.6-0.1c0.2,0,0.4-0.1,0.6-0.2c0.2-0.1,0.3-0.1,0.5-0.2
			c0.1-0.1,0.2-0.2,0.3-0.3c0-0.1,0.1-0.1,0.1-0.2c0-0.1,0-0.2-0.1-0.3c-0.1,0-0.1-0.1-0.2-0.1c-0.2-0.1-0.4-0.1-0.6-0.1
			c-0.4,0-0.7,0-1.1,0c-0.2,0-0.4,0-0.6,0.1c-0.2,0-0.4,0.1-0.6,0.2c-0.2,0.1-0.3,0.1-0.5,0.2c-0.1,0.1-0.2,0.2-0.3,0.3
			c0,0.1-0.1,0.1-0.1,0.2c0,0.1,0,0.2,0.1,0.3c0.1,0,0.1,0.1,0.2,0.1C12.5,593.5,12.7,593.6,12.9,593.5L12.9,593.5z"/>
	</g>
</g>
<g>
	<g>
		<path class="st8" d="M29.9,592.3c0.1,0,0.1,0,0.2,0c0.2,0,0.4,0,0.6-0.1c0.2,0,0.4-0.1,0.6-0.2c0.2-0.1,0.3-0.1,0.5-0.2
			c0.1-0.1,0.2-0.1,0.3-0.2c0-0.1,0.1-0.1,0.1-0.2c0-0.1,0-0.2-0.1-0.3c-0.1,0-0.1-0.1-0.2-0.1c-0.2,0-0.4-0.1-0.6-0.1
			c-0.1,0-0.1,0-0.2,0c-0.2,0-0.4,0-0.6,0.1c-0.2,0-0.4,0.1-0.6,0.2c-0.2,0.1-0.3,0.1-0.5,0.2c-0.1,0.1-0.2,0.1-0.3,0.2
			c0,0.1-0.1,0.1-0.1,0.2c0,0.1,0,0.2,0.1,0.3c0.1,0,0.1,0.1,0.2,0.1C29.5,592.3,29.7,592.3,29.9,592.3L29.9,592.3z"/>
	</g>
</g>
<g>
	<g>
		<path class="st8" d="M114.7,593.4c0.5,0.1,1,0.1,1.5,0.1c0.5-0.1,1-0.2,1.5-0.4c0.2-0.1,0.3-0.2,0.5-0.3c0.1-0.1,0.2-0.2,0.3-0.3
			c0.1-0.2,0.2-0.5,0-0.7c-0.1-0.1-0.1-0.1-0.2-0.2c-0.2-0.1-0.4-0.2-0.6-0.2c-0.4,0-0.8,0.1-1.1,0.2c-0.1,0-0.1,0.1-0.2,0.1
			c0.1,0,0.3-0.1,0.4-0.1c-0.1,0-0.2,0.1-0.4,0.1c0.1,0,0.3,0,0.4-0.1c-0.1,0-0.3,0-0.4,0c0.1,0,0.2,0,0.4,0c-0.1,0-0.3,0-0.4,0
			c0.1,0,0.2,0,0.3,0.1h-0.1c-0.2,0-0.3-0.1-0.5,0c-0.2,0-0.4,0-0.6,0.1c-0.2,0-0.4,0.1-0.5,0.2c-0.2,0.1-0.3,0.2-0.4,0.3
			c-0.2,0.2-0.4,0.4-0.3,0.7C114.2,593.2,114.4,593.3,114.7,593.4L114.7,593.4z"/>
	</g>
</g>
<g>
	<g>
		<path class="st8" d="M73.9,591.3c0.2,0,0.4,0,0.7,0c0.2,0,0.4,0,0.6-0.1c0.2,0,0.4-0.1,0.6-0.2c0.2-0.1,0.3-0.1,0.5-0.3
			c0.1-0.1,0.2-0.2,0.3-0.3c0-0.1,0.1-0.1,0.1-0.2c0-0.1,0-0.3-0.1-0.4c-0.1,0-0.1-0.1-0.2-0.1c-0.2-0.1-0.4-0.1-0.6-0.1
			s-0.4,0-0.7,0c-0.2,0-0.4,0-0.6,0.1c-0.2,0-0.4,0.1-0.6,0.2c-0.2,0.1-0.3,0.1-0.5,0.3c-0.1,0.1-0.2,0.2-0.3,0.3
			c0,0.1-0.1,0.1-0.1,0.2c0,0.1,0,0.3,0.1,0.4c0.1,0,0.1,0.1,0.2,0.1C73.5,591.3,73.7,591.3,73.9,591.3L73.9,591.3z"/>
	</g>
</g>
<g>
	<g>
		<path class="st8" d="M492.8,595.4c0.4,0.1,0.7,0.2,1.1,0.3c0.2,0,0.3,0,0.5,0s0.4,0,0.6-0.1c0.2,0,0.4-0.1,0.5-0.2
			c0.2-0.1,0.3-0.2,0.4-0.3s0.1-0.1,0.2-0.2c0.1-0.1,0.1-0.3,0.1-0.4c0-0.1-0.1-0.1-0.1-0.2c-0.1-0.1-0.3-0.2-0.5-0.2
			c-0.4-0.1-0.7-0.2-1.1-0.3c-0.2,0-0.3,0-0.5,0s-0.4,0-0.6,0.1c-0.2,0-0.4,0.1-0.5,0.2c-0.2,0.1-0.3,0.2-0.4,0.3s-0.1,0.1-0.2,0.2
			c-0.1,0.1-0.1,0.3-0.1,0.4c0,0.1,0.1,0.1,0.1,0.2C492.4,595.3,492.6,595.4,492.8,595.4L492.8,595.4z"/>
	</g>
</g>
<g>
	<g>
		<path class="st8" d="M484.4,596.7c0.7,0,1.3,0,2,0c0.4,0,0.8-0.1,1.1-0.2c0.2-0.1,0.3-0.2,0.5-0.3c0.1-0.1,0.2-0.2,0.3-0.3
			c0.1-0.2,0.2-0.4,0-0.6c-0.2-0.2-0.5-0.3-0.8-0.3c-0.7,0-1.3,0-2,0c-0.4,0-0.8,0.1-1.1,0.2c-0.2,0.1-0.3,0.2-0.5,0.3
			c-0.1,0.1-0.2,0.2-0.3,0.3c-0.1,0.2-0.2,0.4,0,0.6C483.8,596.6,484.1,596.7,484.4,596.7L484.4,596.7z"/>
	</g>
</g>
<g>
	<g>
		<path class="st8" d="M489.9,597.9c0.1,0.1,0.1,0.1,0.2,0.2c0.1,0.1,0.2,0.1,0.3,0.1c0.1,0,0.3,0,0.4,0c0.2,0,0.4,0,0.6-0.1
			c0.2,0,0.4-0.1,0.6-0.2c0.1,0,0.2-0.1,0.3-0.1c0.2-0.1,0.3-0.2,0.5-0.3l0.1-0.1c0-0.1,0-0.2-0.1-0.2c-0.1-0.1-0.1-0.1-0.2-0.2
			c-0.1-0.1-0.2-0.1-0.3-0.1c-0.1,0-0.3,0-0.4,0c-0.2,0-0.4,0-0.6,0.1c-0.2,0-0.4,0.1-0.6,0.2c-0.1,0-0.2,0.1-0.3,0.1
			c-0.2,0.1-0.3,0.2-0.5,0.3l-0.1,0.1C489.8,597.8,489.8,597.8,489.9,597.9L489.9,597.9z"/>
	</g>
</g>
<g>
	<g>
		<path class="st8" d="M532.6,595.2c0.1,0,0.3,0,0.4,0c0.2,0,0.4,0,0.6-0.1c0.2,0,0.4-0.1,0.6-0.2c0.2-0.1,0.3-0.1,0.5-0.2
			c0.1-0.1,0.2-0.2,0.3-0.3c0-0.1,0.1-0.1,0.1-0.2c0-0.1,0-0.2-0.1-0.3c-0.1,0-0.1-0.1-0.2-0.1c-0.2-0.1-0.4-0.1-0.6-0.1
			c-0.1,0-0.3,0-0.4,0c-0.2,0-0.4,0-0.6,0.1c-0.2,0-0.4,0.1-0.6,0.2c-0.2,0.1-0.3,0.1-0.5,0.2c-0.1,0.1-0.2,0.2-0.3,0.3
			c0,0.1-0.1,0.1-0.1,0.2c0,0.1,0,0.2,0.1,0.3c0.1,0,0.1,0.1,0.2,0.1C532.2,595.2,532.4,595.3,532.6,595.2L532.6,595.2z"/>
	</g>
</g>
<g>
	<g>
		<path class="st8" d="M536.1,596c0.1,0,0.1,0,0.2,0c0.2,0,0.3,0,0.5,0s0.4-0.1,0.6-0.1s0.4-0.1,0.5-0.2c0.2-0.1,0.3-0.1,0.4-0.2
			c0.1,0,0.1-0.1,0.2-0.1c0.1-0.1,0.1-0.1,0.1-0.3l-0.1-0.1c-0.1-0.1-0.3-0.1-0.4-0.1c-0.1,0-0.1,0-0.2,0c-0.2,0-0.3,0-0.5,0
			s-0.4,0.1-0.6,0.1s-0.4,0.1-0.5,0.2c-0.2,0.1-0.3,0.1-0.4,0.2c-0.1,0-0.1,0.1-0.2,0.1c-0.1,0.1-0.1,0.1-0.1,0.3l0.1,0.1
			C535.9,596,536,596,536.1,596L536.1,596z"/>
	</g>
</g>
<g>
	<g>
		<path class="st8" d="M435.8,595.9c0.2,0,0.4,0,0.7,0c0.2,0,0.4-0.1,0.6-0.1c0.2-0.1,0.4-0.1,0.5-0.3c0.1-0.1,0.3-0.2,0.3-0.4
			c0.1-0.1,0.2-0.3,0.2-0.4c0-0.1,0-0.2,0-0.3c-0.1-0.2-0.2-0.3-0.3-0.5c-0.1,0-0.2-0.1-0.3-0.1c-0.2-0.1-0.5-0.1-0.7-0.1
			s-0.4,0-0.7,0c-0.2,0-0.4,0.1-0.6,0.1c-0.2,0.1-0.4,0.1-0.5,0.3c-0.1,0.1-0.3,0.2-0.3,0.4c-0.1,0.1-0.2,0.3-0.2,0.4
			c0,0.1,0,0.2,0,0.3c0.1,0.2,0.2,0.3,0.3,0.5c0.1,0,0.2,0.1,0.3,0.1C435.3,595.9,435.5,595.9,435.8,595.9L435.8,595.9z"/>
	</g>
</g>
<g>
	<g>
		<path class="st8" d="M450.7,592.6c0.4,0,0.7,0,1.1,0c0.2,0,0.4,0,0.6-0.1c0.2,0,0.4-0.1,0.6-0.2c0.2-0.1,0.3-0.1,0.5-0.2
			c0.1-0.1,0.2-0.2,0.3-0.3c0-0.1,0.1-0.1,0.1-0.2c0-0.1,0-0.2-0.1-0.3c-0.1,0-0.1-0.1-0.2-0.1c-0.2-0.1-0.4-0.1-0.6-0.1
			c-0.4,0-0.7,0-1.1,0c-0.2,0-0.4,0-0.6,0.1c-0.2,0-0.4,0.1-0.6,0.2c-0.2,0.1-0.3,0.1-0.5,0.2c-0.1,0.1-0.2,0.2-0.3,0.3
			c0,0.1-0.1,0.1-0.1,0.2c0,0.1,0,0.2,0.1,0.3c0.1,0,0.1,0.1,0.2,0.1C450.3,592.6,450.5,592.7,450.7,592.6L450.7,592.6z"/>
	</g>
</g>
<g>
	<g>
		<path class="st8" d="M468.9,594.5c0.1,0,0.1,0,0.2,0c0.2,0,0.4,0,0.6-0.1c0.2,0,0.4-0.1,0.6-0.2c0.2-0.1,0.3-0.1,0.5-0.2
			c0.1-0.1,0.2-0.1,0.3-0.2c0-0.1,0.1-0.1,0.1-0.2c0-0.1,0-0.2-0.1-0.3c-0.1,0-0.1-0.1-0.2-0.1c-0.2,0-0.4-0.1-0.6-0.1
			c-0.1,0-0.1,0-0.2,0c-0.2,0-0.4,0-0.6,0.1c-0.2,0-0.4,0.1-0.6,0.2c-0.2,0.1-0.3,0.1-0.5,0.2c-0.1,0.1-0.2,0.1-0.3,0.2
			c0,0.1-0.1,0.1-0.1,0.2c0,0.1,0,0.2,0.1,0.3c0.1,0,0.1,0.1,0.2,0.1C468.5,594.5,468.7,594.5,468.9,594.5L468.9,594.5z"/>
	</g>
</g>
<g>
	<g>
		<path class="st8" d="M559.9,593.7c0.5,0.1,1,0.1,1.5,0.1c0.5-0.1,1-0.2,1.5-0.4c0.2-0.1,0.3-0.2,0.5-0.3c0.1-0.1,0.2-0.2,0.3-0.3
			c0.1-0.2,0.2-0.5,0-0.7c-0.1-0.1-0.1-0.1-0.2-0.2c-0.2-0.1-0.4-0.2-0.6-0.2c-0.4,0-0.8,0.1-1.1,0.2c-0.1,0-0.1,0.1-0.2,0.1
			c0.1,0,0.3-0.1,0.4-0.1c-0.1,0-0.2,0.1-0.4,0.1c0.1,0,0.3,0,0.4-0.1c-0.1,0-0.3,0-0.4,0c0.1,0,0.2,0,0.4,0c-0.1,0-0.3,0-0.4,0
			c0.1,0,0.2,0,0.3,0.1h-0.1c-0.2,0-0.3-0.1-0.5,0c-0.2,0-0.4,0-0.6,0.1c-0.2,0-0.4,0.1-0.5,0.2c-0.2,0.1-0.3,0.2-0.4,0.3
			c-0.2,0.2-0.4,0.4-0.3,0.7C559.4,593.5,559.6,593.6,559.9,593.7L559.9,593.7z"/>
	</g>
</g>
<g>
	<g>
		<path class="st8" d="M512.9,593.6c0.2,0,0.4,0,0.7,0c0.2,0,0.4,0,0.6-0.1c0.2,0,0.4-0.1,0.6-0.2c0.2-0.1,0.3-0.1,0.5-0.3
			c0.1-0.1,0.2-0.2,0.3-0.3c0-0.1,0.1-0.1,0.1-0.2c0-0.1,0-0.3-0.1-0.4c-0.1,0-0.1-0.1-0.2-0.1c-0.2-0.1-0.4-0.1-0.6-0.1
			s-0.4,0-0.7,0c-0.2,0-0.4,0-0.6,0.1c-0.2,0-0.4,0.1-0.6,0.2c-0.2,0.1-0.3,0.1-0.5,0.3c-0.1,0.1-0.2,0.2-0.3,0.3
			c0,0.1-0.1,0.1-0.1,0.2c0,0.1,0,0.3,0.1,0.4c0.1,0,0.1,0.1,0.2,0.1C512.5,593.6,512.7,593.6,512.9,593.6L512.9,593.6z"/>
	</g>
</g>
<g>
	<g>
		<path class="st8" d="M640,595.3c0.4,0.1,0.7,0.2,1.1,0.3c0.2,0,0.3,0,0.5,0s0.4,0,0.6-0.1c0.2,0,0.4-0.1,0.5-0.2
			c0.2-0.1,0.3-0.2,0.4-0.3c0.1-0.1,0.1-0.1,0.2-0.2c0.1-0.1,0.1-0.3,0.1-0.4c0-0.1-0.1-0.1-0.1-0.2c-0.1-0.1-0.3-0.2-0.5-0.2
			c-0.4-0.1-0.7-0.2-1.1-0.3c-0.2,0-0.3,0-0.5,0s-0.4,0-0.6,0.1c-0.2,0-0.4,0.1-0.5,0.2c-0.2,0.1-0.3,0.2-0.4,0.3
			c-0.1,0.1-0.1,0.1-0.2,0.2c-0.1,0.1-0.1,0.3-0.1,0.4c0,0.1,0.1,0.1,0.1,0.2C639.6,595.2,639.8,595.3,640,595.3L640,595.3z"/>
	</g>
</g>
<g>
	<g>
		<path class="st8" d="M631.6,596.6c0.7,0,1.3,0,2,0c0.4,0,0.8-0.1,1.1-0.2c0.2-0.1,0.3-0.2,0.5-0.3c0.1-0.1,0.2-0.2,0.3-0.3
			c0.1-0.2,0.2-0.4,0-0.6c-0.2-0.2-0.5-0.3-0.8-0.3c-0.7,0-1.3,0-2,0c-0.4,0-0.8,0.1-1.1,0.2c-0.2,0.1-0.3,0.2-0.5,0.3
			c-0.1,0.1-0.2,0.2-0.3,0.3c-0.1,0.2-0.2,0.4,0,0.6S631.3,596.6,631.6,596.6L631.6,596.6z"/>
	</g>
</g>
<g>
	<g>
		<path class="st8" d="M637.1,597.8c0.1,0.1,0.1,0.1,0.2,0.2c0.1,0.1,0.2,0.1,0.3,0.1c0.1,0,0.3,0,0.4,0c0.2,0,0.4,0,0.6-0.1
			c0.2,0,0.4-0.1,0.6-0.2c0.1,0,0.2-0.1,0.3-0.1c0.2-0.1,0.3-0.2,0.5-0.3l0.1-0.1c0-0.1,0-0.2-0.1-0.2c-0.1-0.1-0.1-0.1-0.2-0.2
			c-0.1-0.1-0.2-0.1-0.3-0.1c-0.1,0-0.3,0-0.4,0c-0.2,0-0.4,0-0.6,0.1c-0.2,0-0.4,0.1-0.6,0.2c-0.1,0-0.2,0.1-0.3,0.1
			c-0.2,0.1-0.3,0.2-0.5,0.3l-0.1,0.1C637,597.7,637,597.7,637.1,597.8L637.1,597.8z"/>
	</g>
</g>
<g>
	<g>
		<path class="st8" d="M679.8,595.1c0.1,0,0.3,0,0.4,0c0.2,0,0.4,0,0.6-0.1c0.2,0,0.4-0.1,0.6-0.2c0.2-0.1,0.3-0.1,0.5-0.2
			c0.1-0.1,0.2-0.2,0.3-0.3c0-0.1,0.1-0.1,0.1-0.2c0-0.1,0-0.2-0.1-0.3c-0.1,0-0.1-0.1-0.2-0.1c-0.2-0.1-0.4-0.1-0.6-0.1
			c-0.1,0-0.3,0-0.4,0c-0.2,0-0.4,0-0.6,0.1c-0.2,0-0.4,0.1-0.6,0.2c-0.2,0.1-0.3,0.1-0.5,0.2c-0.1,0.1-0.2,0.2-0.3,0.3
			c0,0.1-0.1,0.1-0.1,0.2c0,0.1,0,0.2,0.1,0.3c0.1,0,0.1,0.1,0.2,0.1C679.4,595.1,679.6,595.2,679.8,595.1L679.8,595.1z"/>
	</g>
</g>
<g>
	<g>
		<path class="st8" d="M683.3,595.9c0.1,0,0.1,0,0.2,0c0.2,0,0.3,0,0.5,0s0.4-0.1,0.6-0.1s0.4-0.1,0.5-0.2c0.2-0.1,0.3-0.1,0.4-0.2
			c0.1,0,0.1-0.1,0.2-0.1c0.1-0.1,0.1-0.1,0.1-0.3l-0.1-0.1c-0.1-0.1-0.3-0.1-0.4-0.1c-0.1,0-0.1,0-0.2,0c-0.2,0-0.3,0-0.5,0
			s-0.4,0.1-0.6,0.1s-0.4,0.1-0.5,0.2c-0.2,0.1-0.3,0.1-0.4,0.2c-0.1,0-0.1,0.1-0.2,0.1c-0.1,0.1-0.1,0.1-0.1,0.3l0.1,0.1
			C683.1,595.9,683.2,595.9,683.3,595.9L683.3,595.9z"/>
	</g>
</g>
<g>
	<g>
		<path class="st8" d="M583,595.7c0.2,0,0.4,0,0.7,0c0.2,0,0.4-0.1,0.6-0.1c0.2-0.1,0.4-0.1,0.5-0.3c0.1-0.1,0.3-0.2,0.3-0.4
			c0.1-0.1,0.2-0.3,0.2-0.4c0-0.1,0-0.2,0-0.3c-0.1-0.2-0.2-0.3-0.3-0.5c-0.1,0-0.2-0.1-0.3-0.1c-0.2-0.1-0.5-0.1-0.7-0.1
			s-0.4,0-0.7,0c-0.2,0-0.4,0.1-0.6,0.1c-0.2,0.1-0.4,0.1-0.5,0.3c-0.1,0.1-0.3,0.2-0.3,0.4c-0.1,0.1-0.2,0.3-0.2,0.4
			c0,0.1,0,0.2,0,0.3c0.1,0.2,0.2,0.3,0.3,0.5c0.1,0,0.2,0.1,0.3,0.1C582.5,595.7,582.7,595.7,583,595.7L583,595.7z"/>
	</g>
</g>
<g>
	<g>
		<path class="st8" d="M597.8,592.4c0.4,0,0.7,0,1.1,0c0.2,0,0.4,0,0.6-0.1c0.2,0,0.4-0.1,0.6-0.2c0.2-0.1,0.3-0.1,0.5-0.2
			c0.1-0.1,0.2-0.2,0.3-0.3c0-0.1,0.1-0.1,0.1-0.2c0-0.1,0-0.2-0.1-0.3c-0.1,0-0.1-0.1-0.2-0.1c-0.2-0.1-0.4-0.1-0.6-0.1
			c-0.4,0-0.7,0-1.1,0c-0.2,0-0.4,0-0.6,0.1c-0.2,0-0.4,0.1-0.6,0.2c-0.2,0.1-0.3,0.1-0.5,0.2c-0.1,0.1-0.2,0.2-0.3,0.3
			c0,0.1-0.1,0.1-0.1,0.2c0,0.1,0,0.2,0.1,0.3c0.1,0,0.1,0.1,0.2,0.1C597.4,592.4,597.6,592.5,597.8,592.4L597.8,592.4z"/>
	</g>
</g>
<g>
	<g>
		<path class="st8" d="M616.1,594.4c0.1,0,0.1,0,0.2,0c0.2,0,0.4,0,0.6-0.1c0.2,0,0.4-0.1,0.6-0.2c0.2-0.1,0.3-0.1,0.5-0.2
			c0.1-0.1,0.2-0.1,0.3-0.2c0-0.1,0.1-0.1,0.1-0.2c0-0.1,0-0.2-0.1-0.3c-0.1,0-0.1-0.1-0.2-0.1c-0.2,0-0.4-0.1-0.6-0.1
			c-0.1,0-0.1,0-0.2,0c-0.2,0-0.4,0-0.6,0.1c-0.2,0-0.4,0.1-0.6,0.2c-0.2,0.1-0.3,0.1-0.5,0.2c-0.1,0.1-0.2,0.1-0.3,0.2
			c0,0.1-0.1,0.1-0.1,0.2c0,0.1,0,0.2,0.1,0.3c0.1,0,0.1,0.1,0.2,0.1C615.7,594.4,615.9,594.4,616.1,594.4L616.1,594.4z"/>
	</g>
</g>
<g>
	<g>
		<path class="st8" d="M707,593.5c0.5,0.1,1,0.1,1.5,0.1c0.5-0.1,1-0.2,1.5-0.4c0.2-0.1,0.3-0.2,0.5-0.3c0.1-0.1,0.2-0.2,0.3-0.3
			c0.1-0.2,0.2-0.5,0-0.7c-0.1-0.1-0.1-0.1-0.2-0.2c-0.2-0.1-0.4-0.2-0.6-0.2c-0.4,0-0.8,0.1-1.1,0.2c-0.1,0-0.1,0.1-0.2,0.1
			c0.1,0,0.3-0.1,0.4-0.1c-0.1,0-0.2,0.1-0.4,0.1c0.1,0,0.3,0,0.4-0.1c-0.1,0-0.3,0-0.4,0c0.1,0,0.2,0,0.4,0c-0.1,0-0.3,0-0.4,0
			c0.1,0,0.2,0,0.3,0.1h-0.1c-0.2,0-0.3-0.1-0.5,0c-0.2,0-0.4,0-0.6,0.1c-0.2,0-0.4,0.1-0.5,0.2c-0.2,0.1-0.3,0.2-0.4,0.3
			c-0.2,0.2-0.4,0.4-0.3,0.7C706.5,593.3,706.7,593.4,707,593.5L707,593.5z"/>
	</g>
</g>
<g>
	<g>
		<path class="st8" d="M660.1,593.4c0.2,0,0.4,0,0.7,0c0.2,0,0.4,0,0.6-0.1c0.2,0,0.4-0.1,0.6-0.2c0.2-0.1,0.3-0.1,0.5-0.3
			c0.1-0.1,0.2-0.2,0.3-0.3c0-0.1,0.1-0.1,0.1-0.2c0-0.1,0-0.3-0.1-0.4c-0.1,0-0.1-0.1-0.2-0.1c-0.2-0.1-0.4-0.1-0.6-0.1
			s-0.4,0-0.7,0c-0.2,0-0.4,0-0.6,0.1c-0.2,0-0.4,0.1-0.6,0.2c-0.2,0.1-0.3,0.1-0.5,0.3c-0.1,0.1-0.2,0.2-0.3,0.3
			c0,0.1-0.1,0.1-0.1,0.2c0,0.1,0,0.3,0.1,0.4c0.1,0,0.1,0.1,0.2,0.1C659.7,593.4,659.9,593.4,660.1,593.4L660.1,593.4z"/>
	</g>
</g>
<g>
	<g>
		<path class="st8" d="M773.9,595.9c0.4,0.1,0.7,0.2,1.1,0.3c0.2,0,0.3,0,0.5,0s0.4,0,0.6-0.1c0.2,0,0.4-0.1,0.5-0.2
			c0.2-0.1,0.3-0.2,0.4-0.3c0.1-0.1,0.1-0.1,0.2-0.2c0.1-0.1,0.1-0.3,0.1-0.4c0-0.1-0.1-0.1-0.1-0.2c-0.1-0.1-0.3-0.2-0.5-0.2
			c-0.4-0.1-0.7-0.2-1.1-0.3c-0.2,0-0.3,0-0.5,0s-0.4,0-0.6,0.1c-0.2,0-0.4,0.1-0.5,0.2c-0.2,0.1-0.3,0.2-0.4,0.3
			c-0.1,0.1-0.1,0.1-0.2,0.2c-0.1,0.1-0.1,0.3-0.1,0.4c0,0.1,0.1,0.1,0.1,0.2C773.5,595.8,773.7,595.9,773.9,595.9L773.9,595.9z"/>
	</g>
</g>
<g>
	<g>
		<path class="st8" d="M765.5,597.2c0.7,0,1.3,0,2,0c0.4,0,0.8-0.1,1.1-0.2c0.2-0.1,0.3-0.2,0.5-0.3c0.1-0.1,0.2-0.2,0.3-0.3
			c0.1-0.2,0.2-0.4,0-0.6c-0.2-0.2-0.5-0.3-0.8-0.3c-0.7,0-1.3,0-2,0c-0.4,0-0.8,0.1-1.1,0.2c-0.2,0.1-0.3,0.2-0.5,0.3
			c-0.1,0.1-0.2,0.2-0.3,0.3c-0.1,0.2-0.2,0.4,0,0.6C764.9,597.1,765.2,597.2,765.5,597.2L765.5,597.2z"/>
	</g>
</g>
<g>
	<g>
		<path class="st8" d="M771,598.4c0.1,0.1,0.1,0.1,0.2,0.2c0.1,0.1,0.2,0.1,0.3,0.1s0.3,0,0.4,0c0.2,0,0.4,0,0.6-0.1
			c0.2,0,0.4-0.1,0.6-0.2c0.1,0,0.2-0.1,0.3-0.1c0.2-0.1,0.3-0.2,0.5-0.3l0.1-0.1c0-0.1,0-0.2-0.1-0.2c-0.1-0.1-0.1-0.1-0.2-0.2
			c-0.1-0.1-0.2-0.1-0.3-0.1s-0.3,0-0.4,0c-0.2,0-0.4,0-0.6,0.1c-0.2,0-0.4,0.1-0.6,0.2c-0.1,0-0.2,0.1-0.3,0.1
			c-0.2,0.1-0.3,0.2-0.5,0.3l-0.1,0.1C770.9,598.3,770.9,598.3,771,598.4L771,598.4z"/>
	</g>
</g>
<g>
	<g>
		<path class="st8" d="M813.7,595.7c0.1,0,0.3,0,0.4,0c0.2,0,0.4,0,0.6-0.1c0.2,0,0.4-0.1,0.6-0.2c0.2-0.1,0.3-0.1,0.5-0.2
			c0.1-0.1,0.2-0.2,0.3-0.3c0-0.1,0.1-0.1,0.1-0.2c0-0.1,0-0.2-0.1-0.3c-0.1,0-0.1-0.1-0.2-0.1c-0.2-0.1-0.4-0.1-0.6-0.1
			c-0.1,0-0.3,0-0.4,0c-0.2,0-0.4,0-0.6,0.1c-0.2,0-0.4,0.1-0.6,0.2c-0.2,0.1-0.3,0.1-0.5,0.2c-0.1,0.1-0.2,0.2-0.3,0.3
			c0,0.1-0.1,0.1-0.1,0.2c0,0.1,0,0.2,0.1,0.3c0.1,0,0.1,0.1,0.2,0.1C813.3,595.7,813.5,595.8,813.7,595.7L813.7,595.7z"/>
	</g>
</g>
<g>
	<g>
		<path class="st8" d="M817.2,596.5c0.1,0,0.1,0,0.2,0c0.2,0,0.3,0,0.5,0s0.4-0.1,0.6-0.1s0.4-0.1,0.5-0.2c0.2-0.1,0.3-0.1,0.4-0.2
			c0.1,0,0.1-0.1,0.2-0.1c0.1-0.1,0.1-0.1,0.1-0.3l-0.1-0.1c-0.1-0.1-0.3-0.1-0.4-0.1c-0.1,0-0.1,0-0.2,0c-0.2,0-0.3,0-0.5,0
			s-0.4,0.1-0.6,0.1s-0.4,0.1-0.5,0.2c-0.2,0.1-0.3,0.1-0.4,0.2c-0.1,0-0.1,0.1-0.2,0.1c-0.1,0.1-0.1,0.1-0.1,0.3l0.1,0.1
			C817,596.5,817.1,596.5,817.2,596.5L817.2,596.5z"/>
	</g>
</g>
<g>
	<g>
		<path class="st8" d="M716.9,596.3c0.2,0,0.4,0,0.7,0c0.2,0,0.4-0.1,0.6-0.1c0.2-0.1,0.4-0.1,0.5-0.3c0.1-0.1,0.3-0.2,0.3-0.4
			c0.1-0.1,0.2-0.3,0.2-0.4c0-0.1,0-0.2,0-0.3c-0.1-0.2-0.2-0.3-0.3-0.5c-0.1,0-0.2-0.1-0.3-0.1c-0.2-0.1-0.5-0.1-0.7-0.1
			s-0.4,0-0.7,0c-0.2,0-0.4,0.1-0.6,0.1c-0.2,0.1-0.4,0.1-0.5,0.3c-0.1,0.1-0.3,0.2-0.3,0.4c-0.1,0.1-0.2,0.3-0.2,0.4
			c0,0.1,0,0.2,0,0.3c0.1,0.2,0.2,0.3,0.3,0.5c0.1,0,0.2,0.1,0.3,0.1C716.4,596.3,716.6,596.3,716.9,596.3L716.9,596.3z"/>
	</g>
</g>
<g>
	<g>
		<path class="st8" d="M731.8,593c0.4,0,0.7,0,1.1,0c0.2,0,0.4,0,0.6-0.1c0.2,0,0.4-0.1,0.6-0.2c0.2-0.1,0.3-0.1,0.5-0.2
			c0.1-0.1,0.2-0.2,0.3-0.3c0-0.1,0.1-0.1,0.1-0.2c0-0.1,0-0.2-0.1-0.3c-0.1,0-0.1-0.1-0.2-0.1c-0.2-0.1-0.4-0.1-0.6-0.1
			c-0.4,0-0.7,0-1.1,0c-0.2,0-0.4,0-0.6,0.1c-0.2,0-0.4,0.1-0.6,0.2c-0.2,0.1-0.3,0.1-0.5,0.2c-0.1,0.1-0.2,0.2-0.3,0.3
			c0,0.1-0.1,0.1-0.1,0.2c0,0.1,0,0.2,0.1,0.3c0.1,0,0.1,0.1,0.2,0.1C731.4,593,731.6,593.1,731.8,593L731.8,593z"/>
	</g>
</g>
<g>
	<g>
		<path class="st8" d="M750,595c0.1,0,0.1,0,0.2,0c0.2,0,0.4,0,0.6-0.1c0.2,0,0.4-0.1,0.6-0.2c0.2-0.1,0.3-0.1,0.5-0.2
			c0.1-0.1,0.2-0.1,0.3-0.2c0-0.1,0.1-0.1,0.1-0.2c0-0.1,0-0.2-0.1-0.3c-0.1,0-0.1-0.1-0.2-0.1c-0.2,0-0.4-0.1-0.6-0.1
			c-0.1,0-0.1,0-0.2,0c-0.2,0-0.4,0-0.6,0.1c-0.2,0-0.4,0.1-0.6,0.2c-0.2,0.1-0.3,0.1-0.5,0.2c-0.1,0.1-0.2,0.1-0.3,0.2
			c0,0.1-0.1,0.1-0.1,0.2c0,0.1,0,0.2,0.1,0.3c0.1,0,0.1,0.1,0.2,0.1C749.6,595,749.8,595,750,595L750,595z"/>
	</g>
</g>
<g>
	<g>
		<path class="st8" d="M841,594.1c0.5,0.1,1,0.1,1.5,0.1c0.5-0.1,1-0.2,1.5-0.4c0.2-0.1,0.3-0.2,0.5-0.3c0.1-0.1,0.2-0.2,0.3-0.3
			c0.1-0.2,0.2-0.5,0-0.7c-0.1-0.1-0.1-0.1-0.2-0.2c-0.2-0.1-0.4-0.2-0.6-0.2c-0.4,0-0.8,0.1-1.1,0.2c-0.1,0-0.1,0.1-0.2,0.1
			c0.1,0,0.3-0.1,0.4-0.1c-0.1,0-0.2,0.1-0.4,0.1c0.1,0,0.3,0,0.4-0.1c-0.1,0-0.3,0-0.4,0c0.1,0,0.2,0,0.4,0c-0.1,0-0.3,0-0.4,0
			c0.1,0,0.2,0,0.3,0.1h-0.1c-0.2,0-0.3-0.1-0.5,0c-0.2,0-0.4,0-0.6,0.1c-0.2,0-0.4,0.1-0.5,0.2c-0.2,0.1-0.3,0.2-0.4,0.3
			c-0.2,0.2-0.4,0.4-0.3,0.7C840.5,593.9,840.7,594,841,594.1L841,594.1z"/>
	</g>
</g>
<g>
	<g>
		<path class="st8" d="M794,594c0.2,0,0.4,0,0.7,0c0.2,0,0.4,0,0.6-0.1c0.2,0,0.4-0.1,0.6-0.2c0.2-0.1,0.3-0.1,0.5-0.3
			c0.1-0.1,0.2-0.2,0.3-0.3c0-0.1,0.1-0.1,0.1-0.2c0-0.1,0-0.3-0.1-0.4c-0.1,0-0.1-0.1-0.2-0.1c-0.2-0.1-0.4-0.1-0.6-0.1
			s-0.4,0-0.7,0c-0.2,0-0.4,0-0.6,0.1c-0.2,0-0.4,0.1-0.6,0.2c-0.2,0.1-0.3,0.1-0.5,0.3c-0.1,0.1-0.2,0.2-0.3,0.3
			c0,0.1-0.1,0.1-0.1,0.2c0,0.1,0,0.3,0.1,0.4c0.1,0,0.1,0.1,0.2,0.1C793.6,594,793.8,594,794,594L794,594z"/>
	</g>
</g>
</svg>
