<?xml version="1.0" encoding="utf-8"?>
<!-- Generator: Adobe Illustrator 24.0.0, SVG Export Plug-In . SVG Version: 6.00 Build 0)  -->
<svg version="1.1" xmlns="http://www.w3.org/2000/svg" xmlns:xlink="http://www.w3.org/1999/xlink" x="0px" y="0px"
	 viewBox="0 0 841.9 595.3" style="enable-background:new 0 0 841.9 595.3;" xml:space="preserve">
<style type="text/css">
	.st0{fill:#EEE8E4;}
	.st1{display:none;}
	.st2{display:inline;fill:#2E2E2F;stroke:#EEE8E4;stroke-miterlimit:10;}
	.st3{display:inline;fill:#363436;}
	.st4{display:inline;fill:#EEE8E4;}
	.st5{display:inline;fill:#EF4270;}
	.st6{display:inline;fill:#51C7E3;}
	.st7{fill:none;stroke:#625252;stroke-miterlimit:10;}
	.st8{fill:none;stroke:#201E20;stroke-miterlimit:10;}
	.st9{fill:#625252;}
</style>
<g id="Layer_4">
	<rect class="st0" width="841.5" height="595.3"/>
</g>
<g id="Layer_1">
</g>
<g id="colors" class="st1">
	<path class="st2" d="M0.4,389.2"/>
	<circle class="st3" cx="65.1" cy="51.2" r="14.5"/>
	<circle class="st4" cx="65.1" cy="86.8" r="14.5"/>
	<circle class="st5" cx="65.1" cy="122.3" r="14.5"/>
	<circle class="st6" cx="65.1" cy="158.4" r="14.5"/>
</g>
<g id="Layer_7">
</g>
<g id="Layer_12">
</g>
<g id="Layer_11">
</g>
<g id="Layer_9">
</g>
<g id="Layer_15">
	<g>
		<g>
			<path class="st0" d="M313.9,132.9c3.2,0,3.2-5,0-5C310.7,127.9,310.7,132.9,313.9,132.9L313.9,132.9z"/>
		</g>
	</g>
	<g>
		<g>
			<path class="st0" d="M346.1,67.8c3.2,0,3.2-5,0-5C342.9,62.8,342.9,67.8,346.1,67.8L346.1,67.8z"/>
		</g>
	</g>
	<g>
		<g>
			<path class="st0" d="M354.7,80.6c0.6,0,1.6-0.2,1.9-0.8c0.3-0.6-0.2-0.8-0.8-0.8c-0.6,0-1.6,0.2-1.9,0.8
				C353.6,80.4,354.2,80.6,354.7,80.6L354.7,80.6z"/>
		</g>
	</g>
	<g>
		<g>
			<path class="st0" d="M336.3,82.8c0.5,0,1.6-0.2,1.9-0.7c0.3-0.5-0.3-0.6-0.7-0.6c-0.5,0-1.6,0.2-1.9,0.7
				C335.3,82.7,335.8,82.8,336.3,82.8L336.3,82.8z"/>
		</g>
	</g>
	<g>
		<g>
			<path class="st0" d="M373.1,137.5c0.6,0,1.6-0.2,1.9-0.8c0.3-0.6-0.2-1.1-0.8-1.1c-0.6,0-1.6,0.2-1.9,0.8
				C372,137,372.5,137.5,373.1,137.5L373.1,137.5z"/>
		</g>
	</g>
	<path class="st7" d="M842.6,86.3"/>
</g>
<g id="Layer_10">
</g>
<g id="Layer_13">
</g>
<g id="Layer_14">
</g>
<g id="Layer_16">
</g>
<g id="Layer_2">
</g>
<g id="Layer_8">
	<g>
		<path class="st8" d="M773.5,560.6c17.2,0.2,34.4,0.5,51.6,0.2"/>
		<path class="st8" d="M-1,560.1c16.9-1.4,33.5,0.6,50-1.4c33.1-2,66.2,3,99.3,2c3.8,0,6.4-2,10.2-2c11.5,2,24.2,2,35.1,1.6"/>
		<g>
			<g>
				<path class="st9" d="M684.5,574.2c0.4,0.1,0.7,0.2,1.1,0.3c0.3,0.1,0.6,0.1,0.9,0c0.2,0,0.4-0.1,0.6-0.1
					c0.2-0.1,0.4-0.1,0.5-0.2c0.1-0.1,0.2-0.1,0.3-0.2c0.1-0.1,0.2-0.2,0.3-0.3c0-0.1,0-0.1,0-0.2c-0.1-0.1-0.1-0.2-0.3-0.2
					c-0.4-0.1-0.7-0.2-1.1-0.3c-0.3-0.1-0.6-0.1-0.9,0c-0.2,0-0.4,0.1-0.6,0.1c-0.2,0.1-0.4,0.1-0.5,0.2c-0.1,0.1-0.2,0.1-0.3,0.2
					c-0.1,0.1-0.2,0.2-0.3,0.3c0,0.1,0,0.1,0,0.2C684.3,574.1,684.4,574.1,684.5,574.2L684.5,574.2z"/>
			</g>
		</g>
		<g>
			<g>
				<path class="st9" d="M676.8,575.9c0.7,0,1.3,0,2,0c0.2,0,0.4-0.1,0.6-0.1c0.2-0.1,0.4-0.1,0.5-0.3c0.1-0.1,0.3-0.2,0.3-0.4
					c0.1-0.1,0.2-0.3,0.2-0.4c0-0.3-0.1-0.6-0.4-0.8c-0.1,0-0.2-0.1-0.3-0.1c-0.2-0.1-0.5-0.1-0.7-0.1c-0.7,0-1.3,0-2,0
					c-0.2,0-0.4,0.1-0.6,0.1c-0.2,0.1-0.4,0.1-0.5,0.3c-0.1,0.1-0.3,0.2-0.3,0.4c-0.1,0.1-0.2,0.3-0.2,0.4c0,0.3,0.1,0.6,0.4,0.8
					c0.1,0,0.2,0.1,0.3,0.1C676.4,575.9,676.6,575.9,676.8,575.9L676.8,575.9z"/>
			</g>
		</g>
		<g>
			<g>
				<path class="st9" d="M681.9,576.8c0.1,0.1,0.1,0.1,0.2,0.2c0.1,0,0.2,0.1,0.3,0.1c0.1,0,0.3,0,0.4,0c0.2,0,0.4-0.1,0.6-0.1
					c0.2,0,0.4-0.1,0.6-0.2c0.1,0,0.2-0.1,0.3-0.1c0.2-0.1,0.3-0.2,0.5-0.3c0,0,0.1-0.1,0.1-0.1c0.1-0.1,0-0.2-0.1-0.2
					c-0.1-0.1-0.1-0.1-0.2-0.2c-0.1,0-0.2-0.1-0.3-0.1c-0.1,0-0.3,0-0.4,0c-0.2,0-0.4,0.1-0.6,0.1c-0.2,0-0.4,0.1-0.6,0.2
					c-0.1,0-0.2,0.1-0.3,0.1c-0.2,0.1-0.3,0.2-0.5,0.3c0,0-0.1,0.1-0.1,0.1C681.8,576.7,681.8,576.8,681.9,576.8L681.9,576.8z"/>
			</g>
		</g>
		<g>
			<g>
				<path class="st9" d="M724.6,574.2c0.1,0,0.3,0,0.4,0c0.2,0,0.4,0,0.6-0.1c0.2,0,0.4-0.1,0.6-0.2c0.2-0.1,0.3-0.1,0.5-0.2
					c0.1-0.1,0.2-0.2,0.3-0.3c0-0.1,0.1-0.1,0.1-0.2c0-0.1,0-0.2-0.1-0.3c-0.1,0-0.1-0.1-0.2-0.1c-0.2-0.1-0.4-0.1-0.6-0.1
					c-0.1,0-0.3,0-0.4,0c-0.2,0-0.4,0-0.6,0.1c-0.2,0-0.4,0.1-0.6,0.2c-0.2,0.1-0.3,0.1-0.5,0.2c-0.1,0.1-0.2,0.2-0.3,0.3
					c0,0.1-0.1,0.1-0.1,0.2c0,0.1,0,0.2,0.1,0.3c0.1,0,0.1,0.1,0.2,0.1C724.2,574.2,724.4,574.2,724.6,574.2L724.6,574.2z"/>
			</g>
		</g>
		<g>
			<g>
				<path class="st9" d="M728.2,575c0.1,0,0.1,0,0.2,0c0.2,0,0.3,0,0.5,0c0.2,0,0.4-0.1,0.6-0.1c0.2,0,0.4-0.1,0.5-0.2
					c0.2-0.1,0.3-0.1,0.4-0.2c0.1-0.1,0.1-0.1,0.2-0.2c0.1-0.1,0.1-0.2,0.1-0.3c0,0-0.1-0.1-0.1-0.1c-0.1-0.1-0.3-0.1-0.4-0.1
					c-0.1,0-0.1,0-0.2,0c-0.2,0-0.3,0-0.5,0c-0.2,0-0.4,0.1-0.6,0.1c-0.2,0-0.4,0.1-0.5,0.2c-0.2,0.1-0.3,0.1-0.4,0.2
					c-0.1,0.1-0.1,0.1-0.2,0.2c-0.1,0.1-0.1,0.2-0.1,0.3c0,0,0.1,0.1,0.1,0.1C727.9,575,728,575,728.2,575L728.2,575z"/>
			</g>
		</g>
		<g>
			<g>
				<path class="st9" d="M612.7,577.4c0.2,0,0.4,0,0.7,0c0.2,0,0.4-0.1,0.6-0.1c0.2-0.1,0.4-0.1,0.5-0.3c0.1-0.1,0.3-0.2,0.3-0.4
					c0.1-0.1,0.2-0.3,0.2-0.4c0-0.1,0-0.2,0-0.3c-0.1-0.2-0.2-0.3-0.3-0.5c-0.1,0-0.2-0.1-0.3-0.1c-0.2-0.1-0.5-0.1-0.7-0.1
					c-0.2,0-0.4,0-0.7,0c-0.2,0-0.4,0.1-0.6,0.1c-0.2,0.1-0.4,0.1-0.5,0.3c-0.1,0.1-0.3,0.2-0.3,0.4c-0.1,0.1-0.2,0.3-0.2,0.4
					c0,0.1,0,0.2,0,0.3c0.1,0.2,0.2,0.3,0.3,0.5c0.1,0,0.2,0.1,0.3,0.1C612.2,577.4,612.4,577.4,612.7,577.4L612.7,577.4z"/>
			</g>
		</g>
		<g>
			<g>
				<path class="st9" d="M615.3,578.7c0.4,0,0.7,0,1.1,0c0.2,0,0.4,0,0.6-0.1c0.2,0,0.4-0.1,0.6-0.2c0.2-0.1,0.3-0.2,0.5-0.3
					c0.1-0.1,0.2-0.2,0.3-0.3c0-0.1,0.1-0.2,0.1-0.2c0-0.2,0-0.3-0.1-0.4c-0.1,0-0.1-0.1-0.2-0.1c-0.2-0.1-0.4-0.1-0.6-0.1
					c-0.4,0-0.7,0-1.1,0c-0.2,0-0.4,0-0.6,0.1c-0.2,0-0.4,0.1-0.6,0.2c-0.2,0.1-0.3,0.2-0.5,0.3c-0.1,0.1-0.2,0.2-0.3,0.3
					c0,0.1-0.1,0.2-0.1,0.2c0,0.2,0,0.3,0.1,0.4c0.1,0,0.1,0.1,0.2,0.1C614.9,578.7,615.1,578.7,615.3,578.7L615.3,578.7z"/>
			</g>
		</g>
		<g>
			<g>
				<path class="st9" d="M622.1,577.3c0.1,0,0.1,0,0.2,0c0.2,0,0.4,0,0.6,0c0.2,0,0.4-0.1,0.6-0.2c0.2-0.1,0.3-0.2,0.5-0.3
					c0.1-0.1,0.2-0.2,0.3-0.3c0-0.1,0.1-0.2,0.1-0.2c0-0.2,0-0.3-0.1-0.4c-0.1-0.1-0.1-0.1-0.2-0.2c-0.2-0.1-0.4-0.2-0.6-0.2
					c-0.1,0-0.1,0-0.2,0c-0.2,0-0.4,0-0.6,0c-0.2,0-0.4,0.1-0.6,0.2c-0.2,0.1-0.3,0.2-0.5,0.3c-0.1,0.1-0.2,0.2-0.3,0.3
					c0,0.1-0.1,0.2-0.1,0.2c0,0.2,0,0.3,0.1,0.4c0.1,0.1,0.1,0.1,0.2,0.2C621.7,577.2,621.9,577.2,622.1,577.3L622.1,577.3z"/>
			</g>
		</g>
		<g>
			<g>
				<path class="st9" d="M800.5,579.2c0.3,0.1,0.6,0.1,0.9,0.2c0.2,0,0.4,0,0.6,0c0.2,0,0.4-0.1,0.6-0.2c0.2-0.1,0.3-0.2,0.4-0.3
					c0.1-0.1,0.2-0.2,0.3-0.4c0-0.1,0.1-0.2,0.1-0.3c0-0.2,0-0.4-0.1-0.6c-0.1-0.1-0.1-0.1-0.2-0.2c-0.2-0.1-0.4-0.2-0.6-0.2
					c-0.3-0.1-0.6-0.1-0.9-0.2c-0.2,0-0.4,0-0.6,0c-0.2,0-0.4,0.1-0.6,0.2c-0.2,0.1-0.3,0.2-0.4,0.3c-0.1,0.1-0.2,0.2-0.3,0.4
					c0,0.1-0.1,0.2-0.1,0.3c0,0.2,0,0.4,0.1,0.6c0.1,0.1,0.1,0.1,0.2,0.2C800.1,579.1,800.3,579.2,800.5,579.2L800.5,579.2z"/>
			</g>
		</g>
		<g>
			<g>
				<path class="st9" d="M812.7,579.9c0.2,0,0.4,0,0.7,0c0.2,0,0.4-0.1,0.6-0.1c0.2-0.1,0.4-0.1,0.5-0.3c0.1-0.1,0.3-0.2,0.3-0.4
					c0.1-0.1,0.2-0.3,0.2-0.4c0-0.1,0-0.2,0-0.3c-0.1-0.2-0.2-0.3-0.3-0.5c-0.1,0-0.2-0.1-0.3-0.1c-0.2-0.1-0.5-0.1-0.7-0.1
					c-0.2,0-0.4,0-0.7,0c-0.2,0-0.4,0.1-0.6,0.1c-0.2,0.1-0.4,0.1-0.5,0.3c-0.1,0.1-0.3,0.2-0.3,0.4c-0.1,0.1-0.2,0.3-0.2,0.4
					c0,0.1,0,0.2,0,0.3c0.1,0.2,0.2,0.3,0.3,0.5c0.1,0,0.2,0.1,0.3,0.1C812.2,579.9,812.4,580,812.7,579.9L812.7,579.9z"/>
			</g>
		</g>
		<g>
			<g>
				<path class="st9" d="M795.1,584.9c0.5,0.1,1,0.1,1.5,0.1c0.5-0.1,1-0.2,1.5-0.4c0.2-0.1,0.3-0.2,0.5-0.3
					c0.1-0.1,0.2-0.2,0.3-0.3c0.1-0.2,0.2-0.5,0-0.7c-0.1-0.1-0.1-0.1-0.2-0.2c-0.2-0.1-0.4-0.1-0.6-0.2c-0.4,0-0.8,0.1-1.1,0.2
					c-0.1,0-0.2,0.1-0.3,0.1c0.1,0,0.3-0.1,0.4-0.1c-0.1,0-0.2,0.1-0.3,0.1c0.1,0,0.3,0,0.4-0.1c-0.1,0-0.3,0-0.4,0
					c0.1,0,0.2,0,0.4,0c-0.1,0-0.3,0-0.4,0c0.1,0,0.2,0,0.3,0c0,0-0.1,0-0.1,0c-0.2,0-0.3-0.1-0.5,0c-0.2,0-0.4,0-0.6,0.1
					c-0.2,0-0.4,0.1-0.5,0.2c-0.2,0.1-0.3,0.2-0.4,0.3c-0.2,0.2-0.4,0.4-0.3,0.7C794.6,584.7,794.9,584.9,795.1,584.9L795.1,584.9z"
					/>
			</g>
		</g>
		<g>
			<g>
				<path class="st9" d="M815.9,582.1c0.2,0,0.4,0,0.7,0c0.2,0,0.4-0.1,0.6-0.1c0.2-0.1,0.4-0.1,0.5-0.3c0.1-0.1,0.3-0.2,0.3-0.4
					c0.1-0.1,0.2-0.3,0.2-0.4c0-0.1,0-0.2,0-0.3c-0.1-0.2-0.2-0.3-0.3-0.5c-0.1,0-0.2-0.1-0.3-0.1c-0.2-0.1-0.5-0.1-0.7-0.1
					c-0.2,0-0.4,0-0.7,0c-0.2,0-0.4,0.1-0.6,0.1c-0.2,0.1-0.4,0.1-0.5,0.3c-0.1,0.1-0.3,0.2-0.3,0.4c-0.1,0.1-0.2,0.3-0.2,0.4
					c0,0.1,0,0.2,0,0.3c0.1,0.2,0.2,0.3,0.3,0.5c0.1,0,0.2,0.1,0.3,0.1C815.5,582.1,815.7,582.1,815.9,582.1L815.9,582.1z"/>
			</g>
		</g>
		<g>
			<g>
				<path class="st9" d="M496.7,641.2c0.6,0,1.6-0.2,1.9-0.8c0.3-0.6-0.2-1-0.8-1c-0.6,0-1.6,0.2-1.9,0.8
					C495.6,640.8,496.1,641.2,496.7,641.2L496.7,641.2z"/>
			</g>
		</g>
		<g>
			<g>
				<path class="st9" d="M504.3,639.1c0.6,0,1.6-0.2,1.9-0.8c0.3-0.6-0.2-0.9-0.8-0.9c-0.6,0-1.6,0.2-1.9,0.8
					C503.2,638.7,503.8,639.1,504.3,639.1L504.3,639.1z"/>
			</g>
		</g>
		<g>
			<g>
				<path class="st9" d="M501.3,644.8c0.7,0,1.6-0.2,1.9-0.9c0.3-0.6-0.2-1.1-0.9-1.1c-0.7,0-1.6,0.2-1.9,0.9
					C500.2,644.3,500.7,644.8,501.3,644.8L501.3,644.8z"/>
			</g>
		</g>
		<g>
			<g>
				<path class="st9" d="M613.1,621.2c0.6,0,1.6-0.2,1.9-0.8c0.3-0.6-0.2-0.9-0.8-0.9c-0.6,0-1.6,0.2-1.9,0.8
					C612,620.9,612.5,621.2,613.1,621.2L613.1,621.2z"/>
			</g>
		</g>
		<g>
			<g>
				<path class="st9" d="M638.7,620.9c0.6,0,1.5-0.1,2-0.5c0.4-0.3,0.5-0.7-0.2-0.7c-0.6,0-1.5,0.1-2,0.5
					C638.2,620.6,638.1,620.9,638.7,620.9L638.7,620.9z"/>
			</g>
		</g>
		<g>
			<g>
				<path class="st9" d="M617.6,628.1c1.7,0,2.2-2.2,0.2-2.2C616.1,625.9,615.6,628.1,617.6,628.1L617.6,628.1z"/>
			</g>
		</g>
		<g>
			<g>
				<path class="st9" d="M596.7,659.4c0.5,0,1.6-0.2,1.9-0.8c0.3-0.6-0.3-0.7-0.7-0.7c-0.5,0-1.6,0.2-1.9,0.8
					C595.7,659.2,596.2,659.4,596.7,659.4L596.7,659.4z"/>
			</g>
		</g>
		<g>
			<g>
				<path class="st9" d="M772.9,621.1c0.6,0,1.6-0.2,1.9-0.8c0.3-0.6-0.2-0.8-0.8-0.8c-0.6,0-1.6,0.2-1.9,0.8
					C771.8,620.9,772.4,621.1,772.9,621.1L772.9,621.1z"/>
			</g>
		</g>
		<g>
			<g>
				<path class="st9" d="M815.2,621.5c0.5,0,1.6-0.2,1.9-0.7c0.3-0.5-0.3-0.6-0.7-0.6c-0.5,0-1.6,0.2-1.9,0.7
					C814.2,621.5,814.8,621.5,815.2,621.5L815.2,621.5z"/>
			</g>
		</g>
		<g>
			<g>
				<path class="st9" d="M811.1,625.5c0.2,0,0.3,0,0.5,0c0.2,0,0.4-0.1,0.6-0.1c0.2-0.1,0.4-0.1,0.5-0.3c0.1-0.1,0.3-0.2,0.3-0.4
					c0.1-0.1,0.2-0.3,0.2-0.4c0-0.1,0-0.2,0-0.3c-0.1-0.2-0.2-0.3-0.3-0.5c-0.1,0-0.2-0.1-0.3-0.1c-0.2-0.1-0.5-0.1-0.7-0.1
					c-0.2,0-0.3,0-0.5,0c-0.2,0-0.4,0.1-0.6,0.1c-0.2,0.1-0.4,0.1-0.5,0.3c-0.1,0.1-0.3,0.2-0.3,0.4c-0.1,0.1-0.2,0.3-0.2,0.4
					c0,0.1,0,0.2,0,0.3c0.1,0.2,0.2,0.3,0.3,0.5c0.1,0,0.2,0.1,0.3,0.1C810.7,625.5,810.9,625.5,811.1,625.5L811.1,625.5z"/>
			</g>
		</g>
		<g>
			<g>
				<path class="st9" d="M715.8,603c0.6,0,1.5-0.2,2-0.5c0.4-0.3,0.5-0.5-0.1-0.5c-0.6,0-1.5,0.2-2,0.5
					C715.3,602.8,715.2,603,715.8,603L715.8,603z"/>
			</g>
		</g>
		<g>
			<g>
				<path class="st9" d="M575.8,698.3c0-0.2,0-0.3,0-0.5c0-0.1,0-0.2-0.1-0.3c0-0.1-0.1-0.2-0.2-0.2c-0.1-0.1-0.3-0.1-0.4-0.1
					c-0.2,0-0.4,0-0.5,0c-0.1,0-0.3,0.1-0.4,0.1c-0.2,0.1-0.5,0.2-0.7,0.3c-0.1,0.1-0.2,0.1-0.3,0.2c-0.1,0.1-0.2,0.3-0.3,0.4
					c0,0.2,0,0.3,0,0.5c0,0.1,0,0.2,0.1,0.3c0,0.1,0.1,0.2,0.2,0.2c0.1,0.1,0.3,0.1,0.4,0.1c0.2,0,0.4,0,0.5,0
					c0.1,0,0.3-0.1,0.4-0.1c0.2-0.1,0.5-0.2,0.7-0.3c0.1-0.1,0.2-0.1,0.3-0.2C575.6,698.6,575.7,698.5,575.8,698.3L575.8,698.3z"/>
			</g>
		</g>
		<g>
			<g>
				<path class="st9" d="M601.4,695.8c0.6,0,1.6-0.2,1.9-0.8c0.3-0.6-0.2-1-0.8-1c-0.6,0-1.6,0.2-1.9,0.8
					C600.2,695.4,600.8,695.8,601.4,695.8L601.4,695.8z"/>
			</g>
		</g>
		<g>
			<g>
				<path class="st9" d="M605.9,698.1c0.5,0,1.6-0.2,1.9-0.7c0.3-0.6-0.3-0.6-0.7-0.6c-0.5,0-1.6,0.2-1.9,0.7
					C604.9,698,605.4,698.1,605.9,698.1L605.9,698.1z"/>
			</g>
		</g>
		<g>
			<g>
				<path class="st9" d="M458,684.2c0.6,0,1.5-0.1,2-0.5c0.4-0.3,0.5-0.6-0.2-0.6c-0.6,0-1.5,0.1-2,0.5
					C457.4,683.9,457.3,684.2,458,684.2L458,684.2z"/>
			</g>
		</g>
		<g>
			<g>
				<path class="st9" d="M570.7,612.4c0.6,0,1.6-0.2,1.9-0.8c0.3-0.6-0.2-0.8-0.8-0.8c-0.6,0-1.6,0.2-1.9,0.8
					C569.6,612.2,570.2,612.4,570.7,612.4L570.7,612.4z"/>
			</g>
		</g>
		<g>
			<g>
				<path class="st9" d="M498,694.7c0.5,0,1.6-0.2,1.9-0.7c0.3-0.5-0.3-0.6-0.7-0.6c-0.5,0-1.6,0.2-1.9,0.7
					C497,694.6,497.6,694.7,498,694.7L498,694.7z"/>
			</g>
		</g>
		<g>
			<g>
				<path class="st9" d="M47.1,655.6c0.6,0,1.6-0.2,1.9-0.8c0.3-0.6-0.2-1-0.8-1c-0.6,0-1.6,0.2-1.9,0.8
					C46,655.2,46.5,655.6,47.1,655.6L47.1,655.6z"/>
			</g>
		</g>
		<g>
			<g>
				<path class="st9" d="M73.1,655.4c0.5,0,1.6-0.2,1.9-0.7c0.3-0.6-0.3-0.7-0.7-0.7c-0.5,0-1.6,0.2-1.9,0.7
					C72.1,655.3,72.6,655.4,73.1,655.4L73.1,655.4z"/>
			</g>
		</g>
		<g>
			<g>
				<path class="st9" d="M51.2,662.1c0.6,0,1.6-0.2,1.9-0.8c0.3-0.6-0.2-0.8-0.8-0.8c-0.6,0-1.6,0.2-1.9,0.8
					C50.1,661.9,50.6,662.1,51.2,662.1L51.2,662.1z"/>
			</g>
		</g>
		<g>
			<g>
				<path class="st9" d="M30.7,693.7c0.5,0,1.6-0.2,1.9-0.7c0.3-0.6-0.3-0.6-0.7-0.6c-0.5,0-1.6,0.2-1.9,0.7
					C29.7,693.6,30.2,693.7,30.7,693.7L30.7,693.7z"/>
			</g>
		</g>
		<path class="st8" d="M191.3,560.1c16.9-1.4,33.5,0.6,50-1.4c33.1-2,66.2,3,99.3,2c3.8,0,6.4-2,10.2-2c11.5,2,24.2,2,35.1,1.6"/>
		<path class="st8" d="M385.9,560.1c16.9-1.4,33.5,0.6,50-1.4c33.1-2,66.2,3,99.3,2c3.8,0,6.4-2,10.2-2c11.5,2,24.2,2,35.1,1.6"/>
		<path class="st8" d="M579.7,560.1c16.9-1.4,33.5,0.6,50-1.4c33.1-2,66.2,3,99.3,2c3.8,0,6.4-2,10.2-2c11.5,2,24.2,2,35.1,1.6"/>
		<path class="st8" d="M790.9,560.4c17.2,0.2,34.4,0.5,51.6,0.2"/>
		<rect x="541.8" y="633.2" style="fill:none;" width="6.4" height="15.1"/>
		<g>
			<g>
				<path class="st9" d="M329.5,564.6c0.4,0.1,0.7,0.2,1.1,0.3c0.2,0,0.3,0,0.5,0c0.2,0,0.4,0,0.6-0.1c0.2,0,0.4-0.1,0.5-0.2
					c0.2-0.1,0.3-0.2,0.4-0.3c0.1-0.1,0.1-0.1,0.2-0.2c0.1-0.1,0.1-0.3,0.1-0.4c0-0.1-0.1-0.1-0.1-0.2c-0.1-0.1-0.3-0.2-0.5-0.2
					c-0.4-0.1-0.7-0.2-1.1-0.3c-0.2,0-0.3,0-0.5,0c-0.2,0-0.4,0-0.6,0.1c-0.2,0-0.4,0.1-0.5,0.2c-0.2,0.1-0.3,0.2-0.4,0.3
					c-0.1,0.1-0.1,0.1-0.2,0.2c-0.1,0.1-0.1,0.3-0.1,0.4c0,0.1,0.1,0.1,0.1,0.2C329.2,564.5,329.4,564.5,329.5,564.6L329.5,564.6z"
					/>
			</g>
		</g>
		<g>
			<g>
				<path class="st9" d="M321.2,565.9c0.7,0,1.3,0,2,0c0.4,0,0.8-0.1,1.1-0.2c0.2-0.1,0.3-0.2,0.5-0.3c0.1-0.1,0.2-0.2,0.3-0.3
					c0.1-0.2,0.2-0.4,0-0.6c-0.2-0.2-0.5-0.3-0.8-0.3c-0.7,0-1.3,0-2,0c-0.4,0-0.8,0.1-1.1,0.2c-0.2,0.1-0.3,0.2-0.5,0.3
					c-0.1,0.1-0.2,0.2-0.3,0.3c-0.1,0.2-0.2,0.4,0,0.6C320.6,565.8,320.9,565.9,321.2,565.9L321.2,565.9z"/>
			</g>
		</g>
		<g>
			<g>
				<path class="st9" d="M326.7,567.1c0.1,0.1,0.1,0.1,0.2,0.2c0.1,0.1,0.2,0.1,0.3,0.1c0.1,0,0.3,0,0.4,0c0.2,0,0.4,0,0.6-0.1
					c0.2,0,0.4-0.1,0.6-0.2c0.1,0,0.2-0.1,0.3-0.1c0.2-0.1,0.3-0.2,0.5-0.3c0,0,0.1-0.1,0.1-0.1c0-0.1,0-0.2-0.1-0.2
					c-0.1-0.1-0.1-0.1-0.2-0.2c-0.1-0.1-0.2-0.1-0.3-0.1c-0.1,0-0.3,0-0.4,0c-0.2,0-0.4,0-0.6,0.1c-0.2,0-0.4,0.1-0.6,0.2
					c-0.1,0-0.2,0.1-0.3,0.1c-0.2,0.1-0.3,0.2-0.5,0.3c0,0-0.1,0.1-0.1,0.1C326.6,566.9,326.6,567,326.7,567.1L326.7,567.1z"/>
			</g>
		</g>
		<g>
			<g>
				<path class="st9" d="M369.3,564.4c0.1,0,0.3,0,0.4,0c0.2,0,0.4,0,0.6-0.1c0.2,0,0.4-0.1,0.6-0.2c0.2-0.1,0.3-0.1,0.5-0.2
					c0.1-0.1,0.2-0.2,0.3-0.3c0-0.1,0.1-0.1,0.1-0.2c0-0.1,0-0.2-0.1-0.3c-0.1,0-0.1-0.1-0.2-0.1c-0.2-0.1-0.4-0.1-0.6-0.1
					c-0.1,0-0.3,0-0.4,0c-0.2,0-0.4,0-0.6,0.1c-0.2,0-0.4,0.1-0.6,0.2c-0.2,0.1-0.3,0.1-0.5,0.2c-0.1,0.1-0.2,0.2-0.3,0.3
					c0,0.1-0.1,0.1-0.1,0.2c0,0.1,0,0.2,0.1,0.3c0.1,0,0.1,0.1,0.2,0.1C369,564.4,369.1,564.4,369.3,564.4L369.3,564.4z"/>
			</g>
		</g>
		<g>
			<g>
				<path class="st9" d="M372.9,565.2c0.1,0,0.1,0,0.2,0c0.2,0,0.3,0,0.5,0c0.2,0,0.4-0.1,0.6-0.1c0.2,0,0.4-0.1,0.5-0.2
					c0.2-0.1,0.3-0.1,0.4-0.2c0.1,0,0.1-0.1,0.2-0.1c0.1-0.1,0.1-0.1,0.1-0.3c0,0-0.1-0.1-0.1-0.1c-0.1-0.1-0.3-0.1-0.4-0.1
					c-0.1,0-0.1,0-0.2,0c-0.2,0-0.3,0-0.5,0c-0.2,0-0.4,0.1-0.6,0.1c-0.2,0-0.4,0.1-0.5,0.2c-0.2,0.1-0.3,0.1-0.4,0.2
					c-0.1,0-0.1,0.1-0.2,0.1c-0.1,0.1-0.1,0.1-0.1,0.3c0,0,0.1,0.1,0.1,0.1C372.6,565.2,372.8,565.2,372.9,565.2L372.9,565.2z"/>
			</g>
		</g>
		<g>
			<g>
				<path class="st9" d="M257.5,567.7c0.2,0,0.4,0,0.7,0c0.2,0,0.4-0.1,0.6-0.1c0.2-0.1,0.4-0.1,0.5-0.3c0.1-0.1,0.3-0.2,0.3-0.4
					c0.1-0.1,0.2-0.3,0.2-0.4c0-0.1,0-0.2,0-0.3c-0.1-0.2-0.2-0.3-0.3-0.5c-0.1,0-0.2-0.1-0.3-0.1c-0.2-0.1-0.5-0.1-0.7-0.1
					c-0.2,0-0.4,0-0.7,0c-0.2,0-0.4,0.1-0.6,0.1c-0.2,0.1-0.4,0.1-0.5,0.3c-0.1,0.1-0.3,0.2-0.3,0.4c-0.1,0.1-0.2,0.3-0.2,0.4
					c0,0.1,0,0.2,0,0.3c0.1,0.2,0.2,0.3,0.3,0.5c0.1,0,0.2,0.1,0.3,0.1C257,567.7,257.2,567.7,257.5,567.7L257.5,567.7z"/>
			</g>
		</g>
		<g>
			<g>
				<path class="st9" d="M260,568.8c0.4,0,0.7,0,1.1,0c0.2,0,0.4,0,0.6-0.1c0.2,0,0.4-0.1,0.6-0.2c0.2-0.1,0.3-0.1,0.5-0.2
					c0.1-0.1,0.2-0.2,0.3-0.3c0-0.1,0.1-0.1,0.1-0.2c0-0.1,0-0.2-0.1-0.3c-0.1,0-0.1-0.1-0.2-0.1c-0.2-0.1-0.4-0.1-0.6-0.1
					c-0.4,0-0.7,0-1.1,0c-0.2,0-0.4,0-0.6,0.1c-0.2,0-0.4,0.1-0.6,0.2c-0.2,0.1-0.3,0.1-0.5,0.2c-0.1,0.1-0.2,0.2-0.3,0.3
					c0,0.1-0.1,0.1-0.1,0.2c0,0.1,0,0.2,0.1,0.3c0.1,0,0.1,0.1,0.2,0.1C259.6,568.8,259.8,568.8,260,568.8L260,568.8z"/>
			</g>
		</g>
		<g>
			<g>
				<path class="st9" d="M266.8,567.2c0.1,0,0.1,0,0.2,0c0.2,0,0.4,0,0.6-0.1c0.2,0,0.4-0.1,0.6-0.2c0.2-0.1,0.3-0.1,0.5-0.2
					c0.1-0.1,0.2-0.1,0.3-0.2c0-0.1,0.1-0.1,0.1-0.2c0-0.1,0-0.2-0.1-0.3c-0.1,0-0.1-0.1-0.2-0.1c-0.2,0-0.4-0.1-0.6-0.1
					c-0.1,0-0.1,0-0.2,0c-0.2,0-0.4,0-0.6,0.1c-0.2,0-0.4,0.1-0.6,0.2c-0.2,0.1-0.3,0.1-0.5,0.2c-0.1,0.1-0.2,0.1-0.3,0.2
					c0,0.1-0.1,0.1-0.1,0.2c0,0.1,0,0.2,0.1,0.3c0.1,0,0.1,0.1,0.2,0.1C266.4,567.2,266.6,567.3,266.8,567.2L266.8,567.2z"/>
			</g>
		</g>
		<g>
			<g>
				<path class="st9" d="M457.6,566.5c0.3,0.1,0.6,0.1,0.9,0.2c0.1,0.1,0.3,0.1,0.4,0.1c0.2,0,0.3,0,0.5,0c0.2,0,0.4-0.1,0.6-0.1
					c0.2-0.1,0.4-0.1,0.5-0.2c0.1-0.1,0.2-0.1,0.3-0.2c0.1-0.1,0.2-0.2,0.3-0.4c0-0.1,0-0.1,0-0.2c-0.1-0.1-0.1-0.2-0.3-0.3
					c-0.3-0.1-0.6-0.1-0.9-0.2c-0.1-0.1-0.3-0.1-0.4-0.1c-0.2,0-0.3,0-0.5,0c-0.2,0-0.4,0.1-0.6,0.1c-0.2,0.1-0.4,0.1-0.5,0.2
					c-0.1,0.1-0.2,0.1-0.3,0.2c-0.1,0.1-0.2,0.2-0.3,0.4c0,0.1,0,0.1,0,0.2C457.4,566.4,457.4,566.5,457.6,566.5L457.6,566.5z"/>
			</g>
		</g>
		<g>
			<g>
				<path class="st9" d="M469.9,567.4c0.2,0,0.4,0,0.7,0c0.2,0,0.4,0,0.6-0.1c0.2,0,0.4-0.1,0.6-0.2c0.2-0.1,0.3-0.1,0.5-0.3
					c0.1-0.1,0.2-0.2,0.3-0.3c0-0.1,0.1-0.1,0.1-0.2c0-0.1,0-0.3-0.1-0.4c-0.1,0-0.1-0.1-0.2-0.1c-0.2-0.1-0.4-0.1-0.6-0.1
					c-0.2,0-0.4,0-0.7,0c-0.2,0-0.4,0-0.6,0.1c-0.2,0-0.4,0.1-0.6,0.2c-0.2,0.1-0.3,0.1-0.5,0.3c-0.1,0.1-0.2,0.2-0.3,0.3
					c0,0.1-0.1,0.1-0.1,0.2c0,0.1,0,0.3,0.1,0.4c0.1,0,0.1,0.1,0.2,0.1C469.5,567.3,469.7,567.4,469.9,567.4L469.9,567.4z"/>
			</g>
		</g>
		<g>
			<g>
				<path class="st9" d="M452.9,572.7c0.5,0.1,1,0.1,1.5,0.1c0.5-0.1,1-0.2,1.5-0.4c0.2-0.1,0.3-0.2,0.5-0.3
					c0.1-0.1,0.2-0.2,0.3-0.3c0.1-0.2,0.2-0.5,0-0.7c-0.1-0.1-0.1-0.1-0.2-0.2c-0.2-0.1-0.4-0.2-0.6-0.2c-0.4,0-0.8,0.1-1.1,0.2
					c-0.1,0-0.1,0.1-0.2,0.1c0.1,0,0.3-0.1,0.4-0.1c-0.1,0-0.2,0.1-0.4,0.1c0.1,0,0.3,0,0.4-0.1c-0.1,0-0.3,0-0.4,0
					c0.1,0,0.2,0,0.4,0c-0.1,0-0.3,0-0.4,0c0.1,0,0.2,0,0.3,0.1c0,0-0.1,0-0.1,0c-0.2,0-0.3-0.1-0.5,0c-0.2,0-0.4,0-0.6,0.1
					c-0.2,0-0.4,0.1-0.5,0.2c-0.2,0.1-0.3,0.2-0.4,0.3c-0.2,0.2-0.4,0.4-0.3,0.7C452.4,572.5,452.6,572.6,452.9,572.7L452.9,572.7z"
					/>
			</g>
		</g>
		<g>
			<g>
				<path class="st9" d="M473.2,569.6c0.2,0,0.4,0,0.7,0c0.2,0,0.4,0,0.6-0.1c0.2,0,0.4-0.1,0.6-0.2c0.2-0.1,0.3-0.1,0.5-0.3
					c0.1-0.1,0.2-0.2,0.3-0.3c0-0.1,0.1-0.1,0.1-0.2c0-0.1,0-0.3-0.1-0.4c-0.1,0-0.1-0.1-0.2-0.1c-0.2-0.1-0.4-0.1-0.6-0.1
					c-0.2,0-0.4,0-0.7,0c-0.2,0-0.4,0-0.6,0.1c-0.2,0-0.4,0.1-0.6,0.2c-0.2,0.1-0.3,0.1-0.5,0.3c-0.1,0.1-0.2,0.2-0.3,0.3
					c0,0.1-0.1,0.1-0.1,0.2c0,0.1,0,0.3,0.1,0.4c0.1,0,0.1,0.1,0.2,0.1C472.8,569.5,473,569.6,473.2,569.6L473.2,569.6z"/>
			</g>
		</g>
		<g>
			<g>
				<path class="st9" d="M146,651.2c1.7,0,2.2-2.2,0.2-2.2C144.5,649,144,651.2,146,651.2L146,651.2z"/>
			</g>
		</g>
		<g>
			<g>
				<path class="st9" d="M153.2,648.9c0.6,0,1.6-0.2,1.9-0.8c0.3-0.6-0.2-0.8-0.8-0.8c-0.6,0-1.6,0.2-1.9,0.8
					C152.1,648.6,152.7,648.9,153.2,648.9L153.2,648.9z"/>
			</g>
		</g>
		<g>
			<g>
				<path class="st9" d="M150.2,654.6c0.6,0,1.6-0.2,1.9-0.8c0.3-0.6-0.2-1-0.8-1c-0.6,0-1.6,0.2-1.9,0.8
					C149.1,654.2,149.6,654.6,150.2,654.6L150.2,654.6z"/>
			</g>
		</g>
		<g>
			<g>
				<path class="st9" d="M262,631.2c0.6,0,1.6-0.2,1.9-0.8c0.3-0.6-0.2-1.1-0.8-1.1c-0.6,0-1.6,0.2-1.9,0.8
					C260.9,630.7,261.4,631.2,262,631.2L262,631.2z"/>
			</g>
		</g>
		<g>
			<g>
				<path class="st9" d="M287.7,630.8c0.6,0,1.5-0.1,2-0.5c0.4-0.3,0.5-0.7-0.2-0.7c-0.6,0-1.5,0.1-2,0.5
					C287.1,630.4,287,630.8,287.7,630.8L287.7,630.8z"/>
			</g>
		</g>
		<g>
			<g>
				<path class="st9" d="M266.1,637.8c0.6,0,1.6-0.2,1.9-0.8c0.3-0.6-0.2-1.1-0.8-1.1c-0.6,0-1.6,0.2-1.9,0.8
					C265,637.3,265.5,637.8,266.1,637.8L266.1,637.8z"/>
			</g>
		</g>
		<g>
			<g>
				<path class="st9" d="M245.7,669.5c0.6,0,1.6-0.2,1.9-0.8c0.3-0.6-0.2-1.1-0.8-1.1c-0.6,0-1.6,0.2-1.9,0.8
					C244.6,669,245.1,669.5,245.7,669.5L245.7,669.5z"/>
			</g>
		</g>
		<g>
			<g>
				<path class="st9" d="M421.4,630.7c0.6,0,1.5-0.2,2-0.5c0.4-0.3,0.5-0.5-0.1-0.5c-0.6,0-1.5,0.2-2,0.5
					C420.9,630.5,420.8,630.7,421.4,630.7L421.4,630.7z"/>
			</g>
		</g>
		<g>
			<g>
				<path class="st9" d="M464.2,631.5c0.6,0,1.6-0.2,1.9-0.8c0.3-0.6-0.3-0.7-0.8-0.7c-0.6,0-1.6,0.2-1.9,0.8
					C463.1,631.3,463.7,631.5,464.2,631.5L464.2,631.5z"/>
			</g>
		</g>
		<g>
			<g>
				<path class="st9" d="M459.2,634.9c0.2,0,0.3,0,0.5,0c0.2,0,0.3,0,0.5,0c0.2,0,0.4-0.1,0.6-0.1c0.2,0,0.4-0.1,0.5-0.2
					c0.2-0.1,0.3-0.1,0.4-0.2c0.1-0.1,0.1-0.1,0.2-0.2c0.1-0.1,0.1-0.2,0.1-0.3c0,0-0.1-0.1-0.1-0.1c-0.1-0.1-0.3-0.1-0.4-0.1
					c-0.2,0-0.3,0-0.5,0c-0.2,0-0.3,0-0.5,0c-0.2,0-0.4,0.1-0.6,0.1c-0.2,0-0.4,0.1-0.5,0.2c-0.2,0.1-0.3,0.1-0.4,0.2
					c-0.1,0.1-0.1,0.1-0.2,0.2c-0.1,0.1-0.1,0.2-0.1,0.3c0,0,0.1,0.1,0.1,0.1C458.9,634.9,459.1,634.9,459.2,634.9L459.2,634.9z"/>
			</g>
		</g>
		<g>
			<g>
				<path class="st9" d="M365.2,613.3c0.6,0,1.6-0.2,1.9-0.8c0.3-0.6-0.2-1-0.8-1c-0.6,0-1.6,0.2-1.9,0.8
					C364,612.8,364.6,613.3,365.2,613.3L365.2,613.3z"/>
			</g>
		</g>
		<g>
			<g>
				<path class="st9" d="M224.7,707.9c0-0.2,0-0.3,0-0.5c0-0.1-0.1-0.2-0.2-0.2c-0.1-0.1-0.2-0.1-0.4-0.1c-0.2,0-0.3,0-0.5,0
					c-0.2,0-0.4,0-0.6,0.1c-0.1,0-0.3,0.1-0.4,0.1c-0.2,0.1-0.4,0.2-0.6,0.3c-0.1,0.1-0.1,0.1-0.2,0.2c-0.1,0.1-0.1,0.2-0.1,0.4
					c0,0.2,0,0.3,0,0.5c0,0.1,0.1,0.2,0.2,0.2c0.1,0.1,0.2,0.1,0.4,0.1c0.2,0,0.3,0,0.5,0c0.2,0,0.4,0,0.6-0.1
					c0.1,0,0.3-0.1,0.4-0.1c0.2-0.1,0.4-0.2,0.6-0.3c0.1-0.1,0.1-0.1,0.2-0.2C224.7,708.2,224.7,708.1,224.7,707.9L224.7,707.9z"/>
			</g>
		</g>
		<g>
			<g>
				<path class="st9" d="M250.2,705.5c0.5,0,1.6-0.2,1.9-0.7c0.3-0.6-0.3-0.6-0.7-0.6c-0.5,0-1.6,0.2-1.9,0.7
					C249.2,705.4,249.7,705.5,250.2,705.5L250.2,705.5z"/>
			</g>
		</g>
		<g>
			<g>
				<path class="st9" d="M254.8,708.1c0.6,0,1.6-0.2,1.9-0.8c0.3-0.6-0.2-0.8-0.8-0.8c-0.6,0-1.6,0.2-1.9,0.8
					C253.8,707.9,254.3,708.1,254.8,708.1L254.8,708.1z"/>
			</g>
		</g>
		<g>
			<g>
				<path class="st9" d="M107.3,694.3c0.6,0,1.6-0.2,1.9-0.8c0.3-0.6-0.2-0.8-0.8-0.8c-0.6,0-1.6,0.2-1.9,0.8
					C106.2,694.1,106.7,694.3,107.3,694.3L107.3,694.3z"/>
			</g>
		</g>
		<g>
			<g>
				<path class="st9" d="M219.2,622.2c0.6,0,1.5-0.1,2-0.5c0.4-0.3,0.5-0.7-0.2-0.7c-0.6,0-1.5,0.1-2,0.5
					C218.7,621.8,218.6,622.2,219.2,622.2L219.2,622.2z"/>
			</g>
		</g>
		<g>
			<g>
				<path class="st9" d="M147,704.7c0.6,0,1.6-0.2,1.9-0.8c0.3-0.6-0.2-0.8-0.8-0.8c-0.6,0-1.6,0.2-1.9,0.8
					C145.9,704.5,146.4,704.7,147,704.7L147,704.7z"/>
			</g>
		</g>
		<rect x="190.8" y="643.1" style="fill:none;" width="6.4" height="15.1"/>
		<g>
			<g>
				<path class="st9" d="M691.8,683.4c1.7,0,2.2-2.2,0.2-2.2C690.4,681.2,689.9,683.4,691.8,683.4L691.8,683.4z"/>
			</g>
		</g>
		<g>
			<g>
				<path class="st9" d="M699,681c0.6,0,1.6-0.2,1.9-0.8c0.3-0.6-0.2-0.8-0.8-0.8c-0.6,0-1.6,0.2-1.9,0.8
					C698,680.8,698.5,681,699,681L699,681z"/>
			</g>
		</g>
		<g>
			<g>
				<path class="st9" d="M696,686.8c0.6,0,1.6-0.2,1.9-0.8c0.3-0.6-0.2-1-0.8-1c-0.6,0-1.6,0.2-1.9,0.8
					C694.9,686.4,695.4,686.8,696,686.8L696,686.8z"/>
			</g>
		</g>
		<g>
			<g>
				<path class="st9" d="M807.8,663.3c0.6,0,1.6-0.2,1.9-0.8c0.3-0.6-0.2-1.1-0.8-1.1c-0.6,0-1.6,0.2-1.9,0.8
					C806.7,662.9,807.2,663.3,807.8,663.3L807.8,663.3z"/>
			</g>
		</g>
		<g>
			<g>
				<path class="st9" d="M833.5,663c0.6,0,1.5-0.1,2-0.5c0.4-0.3,0.5-0.7-0.2-0.7c-0.6,0-1.5,0.1-2,0.5
					C832.9,662.6,832.8,663,833.5,663L833.5,663z"/>
			</g>
		</g>
		<g>
			<g>
				<path class="st9" d="M811.9,670c0.6,0,1.6-0.2,1.9-0.8c0.3-0.6-0.2-1.1-0.8-1.1c-0.6,0-1.6,0.2-1.9,0.8
					C810.8,669.5,811.3,670,811.9,670L811.9,670z"/>
			</g>
		</g>
		<g>
			<g>
				<path class="st9" d="M791.5,701.6c0.6,0,1.6-0.2,1.9-0.8c0.3-0.6-0.2-1.1-0.8-1.1c-0.6,0-1.6,0.2-1.9,0.8
					C790.4,701.2,790.9,701.6,791.5,701.6L791.5,701.6z"/>
			</g>
		</g>
		<g>
			<g>
				<path class="st9" d="M768.8,701.5c0-0.2,0-0.3,0-0.5c0-0.1-0.1-0.2-0.2-0.2c-0.1-0.1-0.2-0.1-0.4-0.1c-0.2,0-0.3,0-0.5,0
					c-0.2,0-0.4,0-0.6,0.1c-0.1,0-0.3,0.1-0.4,0.1c-0.2,0.1-0.4,0.2-0.6,0.3c-0.1,0.1-0.1,0.1-0.2,0.2c-0.1,0.1-0.1,0.2-0.1,0.4
					c0,0.2,0,0.3,0,0.5c0,0.1,0.1,0.2,0.2,0.2c0.1,0.1,0.2,0.1,0.4,0.1c0.2,0,0.3,0,0.5,0c0.2,0,0.4,0,0.6-0.1
					c0.1,0,0.3-0.1,0.4-0.1c0.2-0.1,0.4-0.2,0.6-0.3c0.1-0.1,0.1-0.1,0.2-0.2C768.8,701.7,768.9,701.6,768.8,701.5L768.8,701.5z"/>
			</g>
		</g>
		<g>
			<g>
				<path class="st9" d="M794.4,699c0.5,0,1.6-0.2,1.9-0.7c0.3-0.6-0.3-0.6-0.7-0.6c-0.5,0-1.6,0.2-1.9,0.7
					C793.3,698.9,793.9,699,794.4,699L794.4,699z"/>
			</g>
		</g>
		<g>
			<g>
				<path class="st9" d="M799,701.6c0.6,0,1.6-0.2,1.9-0.8c0.3-0.6-0.2-0.8-0.8-0.8c-0.6,0-1.6,0.2-1.9,0.8
					C797.9,701.4,798.5,701.6,799,701.6L799,701.6z"/>
			</g>
		</g>
		<g>
			<g>
				<path class="st9" d="M651.4,687.8c0.6,0,1.6-0.2,1.9-0.8c0.3-0.6-0.2-0.8-0.8-0.8c-0.6,0-1.6,0.2-1.9,0.8
					C650.4,687.6,650.9,687.8,651.4,687.8L651.4,687.8z"/>
			</g>
		</g>
		<g>
			<g>
				<path class="st9" d="M765.1,654.3c0.6,0,1.5-0.1,2-0.5c0.4-0.3,0.5-0.7-0.2-0.7c-0.6,0-1.5,0.1-2,0.5
					C764.5,653.9,764.4,654.3,765.1,654.3L765.1,654.3z"/>
			</g>
		</g>
		<g>
			<g>
				<path class="st9" d="M692.8,694.6c0.6,0,1.6-0.2,1.9-0.8c0.3-0.6-0.2-0.8-0.8-0.8c-0.6,0-1.6,0.2-1.9,0.8
					C691.7,694.4,692.3,694.6,692.8,694.6L692.8,694.6z"/>
			</g>
		</g>
		<rect x="736.6" y="675.2" style="fill:none;" width="6.4" height="15.1"/>
		<g>
			<g>
				<path class="st9" d="M272.5,694.9c1.7,0,2.2-2.2,0.2-2.2C271.1,692.7,270.6,694.9,272.5,694.9L272.5,694.9z"/>
			</g>
		</g>
		<g>
			<g>
				<path class="st9" d="M279.7,692.5c0.6,0,1.6-0.2,1.9-0.8c0.3-0.6-0.2-0.8-0.8-0.8c-0.6,0-1.6,0.2-1.9,0.8
					C278.7,692.3,279.2,692.5,279.7,692.5L279.7,692.5z"/>
			</g>
		</g>
		<g>
			<g>
				<path class="st9" d="M276.7,698.3c0.6,0,1.6-0.2,1.9-0.8c0.3-0.6-0.2-1-0.8-1c-0.6,0-1.6,0.2-1.9,0.8
					C275.6,697.9,276.1,698.3,276.7,698.3L276.7,698.3z"/>
			</g>
		</g>
		<g>
			<g>
				<path class="st9" d="M388.5,674.8c0.6,0,1.6-0.2,1.9-0.8c0.3-0.6-0.2-1.1-0.8-1.1c-0.6,0-1.6,0.2-1.9,0.8
					C387.4,674.4,387.9,674.8,388.5,674.8L388.5,674.8z"/>
			</g>
		</g>
		<g>
			<g>
				<path class="st9" d="M414.2,674.5c0.6,0,1.5-0.1,2-0.5c0.4-0.3,0.5-0.7-0.2-0.7c-0.6,0-1.5,0.1-2,0.5
					C413.6,674.1,413.5,674.5,414.2,674.5L414.2,674.5z"/>
			</g>
		</g>
		<g>
			<g>
				<path class="st9" d="M392.6,681.5c0.6,0,1.6-0.2,1.9-0.8c0.3-0.6-0.2-1.1-0.8-1.1c-0.6,0-1.6,0.2-1.9,0.8
					C391.5,681,392,681.5,392.6,681.5L392.6,681.5z"/>
			</g>
		</g>
		<g>
			<g>
				<path class="st9" d="M372.2,713.1c0.6,0,1.6-0.2,1.9-0.8c0.3-0.6-0.2-1.1-0.8-1.1c-0.6,0-1.6,0.2-1.9,0.8
					C371.1,712.7,371.6,713.1,372.2,713.1L372.2,713.1z"/>
			</g>
		</g>
		<g>
			<g>
				<path class="st9" d="M349.6,712.9c0-0.2,0-0.3,0-0.5c0-0.1-0.1-0.2-0.2-0.2c-0.1-0.1-0.2-0.1-0.4-0.1c-0.2,0-0.3,0-0.5,0
					c-0.2,0-0.4,0-0.6,0.1c-0.1,0-0.3,0.1-0.4,0.1c-0.2,0.1-0.4,0.2-0.6,0.3c-0.1,0.1-0.1,0.1-0.2,0.2c-0.1,0.1-0.1,0.2-0.1,0.4
					c0,0.2,0,0.3,0,0.5c0,0.1,0.1,0.2,0.2,0.2c0.1,0.1,0.2,0.1,0.4,0.1c0.2,0,0.3,0,0.5,0c0.2,0,0.4,0,0.6-0.1
					c0.1,0,0.3-0.1,0.4-0.1c0.2-0.1,0.4-0.2,0.6-0.3c0.1-0.1,0.1-0.1,0.2-0.2C349.5,713.2,349.6,713.1,349.6,712.9L349.6,712.9z"/>
			</g>
		</g>
		<g>
			<g>
				<path class="st9" d="M375.1,710.5c0.5,0,1.6-0.2,1.9-0.7c0.3-0.6-0.3-0.6-0.7-0.6c-0.5,0-1.6,0.2-1.9,0.7
					C374,710.4,374.6,710.5,375.1,710.5L375.1,710.5z"/>
			</g>
		</g>
		<g>
			<g>
				<path class="st9" d="M379.7,713.1c0.6,0,1.6-0.2,1.9-0.8c0.3-0.6-0.2-0.8-0.8-0.8c-0.6,0-1.6,0.2-1.9,0.8
					C378.6,712.9,379.2,713.1,379.7,713.1L379.7,713.1z"/>
			</g>
		</g>
		<g>
			<g>
				<path class="st9" d="M232.1,699.3c0.6,0,1.6-0.2,1.9-0.8c0.3-0.6-0.2-0.8-0.8-0.8c-0.6,0-1.6,0.2-1.9,0.8
					C231.1,699.1,231.6,699.3,232.1,699.3L232.1,699.3z"/>
			</g>
		</g>
		<g>
			<g>
				<path class="st9" d="M345.8,665.8c0.6,0,1.5-0.1,2-0.5c0.4-0.3,0.5-0.7-0.2-0.7c-0.6,0-1.5,0.1-2,0.5
					C345.2,665.4,345.1,665.8,345.8,665.8L345.8,665.8z"/>
			</g>
		</g>
		<g>
			<g>
				<path class="st9" d="M273.5,706.1c0.6,0,1.6-0.2,1.9-0.8c0.3-0.6-0.2-0.8-0.8-0.8c-0.6,0-1.6,0.2-1.9,0.8
					C272.4,705.9,273,706.1,273.5,706.1L273.5,706.1z"/>
			</g>
		</g>
		<rect x="317.3" y="686.7" style="fill:none;" width="6.4" height="15.1"/>
		<g>
			<g>
				<path class="st9" d="M37,608.7c1.7,0,2.2-2.2,0.2-2.2C35.5,606.5,35,608.7,37,608.7L37,608.7z"/>
			</g>
		</g>
		<g>
			<g>
				<path class="st9" d="M44.2,606.3c0.6,0,1.6-0.2,1.9-0.8c0.3-0.6-0.2-0.8-0.8-0.8c-0.6,0-1.6,0.2-1.9,0.8
					C43.1,606.1,43.7,606.3,44.2,606.3L44.2,606.3z"/>
			</g>
		</g>
		<g>
			<g>
				<path class="st9" d="M41.2,612.1c0.6,0,1.6-0.2,1.9-0.8c0.3-0.6-0.2-1-0.8-1c-0.6,0-1.6,0.2-1.9,0.8
					C40.1,611.7,40.6,612.1,41.2,612.1L41.2,612.1z"/>
			</g>
		</g>
		<g>
			<g>
				<path class="st9" d="M153,588.6c0.6,0,1.6-0.2,1.9-0.8c0.3-0.6-0.2-1.1-0.8-1.1c-0.6,0-1.6,0.2-1.9,0.8
					C151.9,588.1,152.4,588.6,153,588.6L153,588.6z"/>
			</g>
		</g>
		<g>
			<g>
				<path class="st9" d="M157.1,595.3c0.6,0,1.6-0.2,1.9-0.8c0.3-0.6-0.2-1.1-0.8-1.1c-0.6,0-1.6,0.2-1.9,0.8
					C156,594.8,156.5,595.3,157.1,595.3L157.1,595.3z"/>
			</g>
		</g>
		<g>
			<g>
				<path class="st9" d="M136.7,626.9c0.6,0,1.6-0.2,1.9-0.8c0.3-0.6-0.2-1.1-0.8-1.1c-0.6,0-1.6,0.2-1.9,0.8
					C135.6,626.4,136.1,626.9,136.7,626.9L136.7,626.9z"/>
			</g>
		</g>
		<g>
			<g>
				<path class="st9" d="M110.2,579.6c0.6,0,1.5-0.1,2-0.5c0.4-0.3,0.5-0.7-0.2-0.7c-0.6,0-1.5,0.1-2,0.5
					C109.7,579.2,109.6,579.6,110.2,579.6L110.2,579.6z"/>
			</g>
		</g>
		<rect x="81.7" y="600.5" style="fill:none;" width="6.4" height="15.1"/>
	</g>
</g>
</svg>
