<?xml version="1.0" encoding="utf-8"?>
<!-- Generator: Adobe Illustrator 24.0.0, SVG Export Plug-In . SVG Version: 6.00 Build 0)  -->
<svg version="1.1" id="Layer_1" xmlns="http://www.w3.org/2000/svg" xmlns:xlink="http://www.w3.org/1999/xlink" x="0px" y="0px"
	 viewBox="0 0 379.7 261" style="enable-background:new 0 0 379.7 261;" xml:space="preserve">
<style type="text/css">
	.st0{fill:#FBFBFB;}
	.st1{fill:none;stroke:#666167;stroke-width:2;stroke-miterlimit:10;}
	.st2{fill:none;stroke:#A299A7;stroke-width:2;stroke-miterlimit:10;}
	.st3{fill:none;stroke:#A299A7;stroke-miterlimit:10;}
	.st4{fill:none;}
	.st5{fill:#A299A7;}
	.st6{fill:none;stroke:#A299A7;stroke-width:1.25;stroke-miterlimit:10;}
</style>
<title>prozorcheto</title>
<path class="st0" d="M333.6,184H46c-8.8,0-15.9-5.1-15.9-11.3c0,0,0,0,0,0V42.9c0-6.3,7.1-11.4,15.9-11.4c0,0,0,0,0,0h287.6
	c8.7,0,15.8,5.1,15.8,11.4v129.7C349.4,178.9,342.4,184,333.6,184"/>
<path class="st1" d="M45.9,31.5h287.7c8.7,0,15.8,5.1,15.8,11.4v129.7c0,6.3-7.1,11.4-15.8,11.4H45.9c-8.7,0-15.8-5.1-15.8-11.4
	V42.9C30.1,36.6,37.2,31.5,45.9,31.5z"/>
<line class="st2" x1="31.1" y1="54.6" x2="348.3" y2="54.6"/>
<line class="st3" x1="320.1" y1="32.5" x2="320.1" y2="54.6"/>
<line class="st3" x1="291.5" y1="54.6" x2="291.5" y2="32.5"/>
<line class="st3" x1="262.6" y1="54.6" x2="262.6" y2="32.5"/>
<line class="st4" x1="326.7" y1="37.8" x2="339.4" y2="50.4"/>
<path class="st5" d="M326.3,38.3l11.1,11l1.6,1.6c0.2,0.2,0.6,0.2,0.9,0c0.2-0.2,0.2-0.6,0-0.9l0,0l-11.1-11l-1.6-1.6
	C326.6,36.8,325.7,37.7,326.3,38.3"/>
<line class="st4" x1="326.7" y1="50.4" x2="339.4" y2="37.8"/>
<path class="st5" d="M327.1,50.9l11.1-11l1.6-1.6c0.2-0.2,0.2-0.6,0-0.9c-0.2-0.2-0.6-0.2-0.9,0l0,0l-11.1,11l-1.6,1.6
	C325.7,50.6,326.6,51.5,327.1,50.9"/>
<path class="st0" d="M311.8,48.6h-10.1c-0.7,0-1.3-0.6-1.3-1.3V37c0-0.7,0.6-1.3,1.3-1.3c0,0,0,0,0,0h10.1c0.7,0,1.3,0.6,1.3,1.3
	v10.3C313.1,48,312.5,48.6,311.8,48.6"/>
<path class="st3" d="M301.7,35.7h10.1c0.7,0,1.3,0.6,1.3,1.3v10.2c0,0.7-0.6,1.3-1.3,1.3h-10.1c-0.7,0-1.3-0.6-1.3-1.3V37.1
	C300.4,36.3,300.9,35.7,301.7,35.7z"/>
<path class="st0" d="M310,50.5h-10.1c-0.7,0-1.3-0.6-1.3-1.3V38.9c0-0.7,0.6-1.3,1.3-1.3H310c0.7,0,1.3,0.6,1.3,1.3v10.2
	C311.3,49.9,310.7,50.5,310,50.5"/>
<path class="st6" d="M299.9,37.6h10.1c0.7,0,1.3,0.6,1.3,1.3v10.2c0,0.7-0.6,1.3-1.3,1.3h-10.1c-0.7,0-1.3-0.6-1.3-1.3V38.9
	C298.5,38.2,299.1,37.6,299.9,37.6z"/>
<path class="st5" d="M268.4,49.2h17.3c0.3,0,0.6-0.4,0.5-0.7c0-0.3-0.3-0.5-0.5-0.5h-17.3c-0.3,0-0.6,0.4-0.5,0.7
	C267.9,48.9,268.1,49.2,268.4,49.2"/>
</svg>
